<?xml version="1.0" encoding="UTF-8" standalone="no"?>
<!-- Created with Inkscape (http://www.inkscape.org/) -->

<svg
   xmlns:dc="http://purl.org/dc/elements/1.1/"
   xmlns:cc="http://creativecommons.org/ns#"
   xmlns:rdf="http://www.w3.org/1999/02/22-rdf-syntax-ns#"
   xmlns:svg="http://www.w3.org/2000/svg"
   xmlns="http://www.w3.org/2000/svg"
   version="1.1"
   width="100%"
   height="100%"
   viewBox="0 0 48 48"
   id="Layer_1"
   xml:space="preserve"><metadata
     id="metadata11"><rdf:RDF><cc:Work
         rdf:about=""><dc:format>image/svg+xml</dc:format><dc:type
           rdf:resource="http://purl.org/dc/dcmitype/StillImage" /><dc:title></dc:title></cc:Work></rdf:RDF></metadata><defs
     id="defs9" /><g
     transform="matrix(1.4449153,0,0,-1.4449153,7.3834746,2374.8771)"
     id="g3"
     style="fill:#777777;fill-opacity:1"><path
       d="m 12,1628 h 4 v 5 h -4 v -5 z m -5,-2 h 9 v 1 H 7 v -1 z m 0,-2 h 9 v 1 H 7 v -1 z m 0,-2 h 9 v 1 H 7 v -1 z m 4,9 H 7 v -1 h 4 v 1 z m 0,-2 H 7 v -1 h 4 v 1 z m 0,4 H 7 v -1 h 4 v 1 z m -6,2 h 13 v -16 H 8 c -1.7,0 -3,1.3 -3,3 v 13 z"
       id="path5"
       style="fill:#777777;fill-opacity:1" /></g></svg>