<?xml version="1.0" encoding="utf-8"?>
<!-- Generator: Adobe Illustrator 17.1.0, SVG Export Plug-In . SVG Version: 6.00 Build 0)  -->
<!DOCTYPE svg PUBLIC "-//W3C//DTD SVG 1.1//EN" "http://www.w3.org/Graphics/SVG/1.1/DTD/svg11.dtd">
<svg version="1.1" id="Layer_1" xmlns="http://www.w3.org/2000/svg" xmlns:xlink="http://www.w3.org/1999/xlink" x="0px" y="0px"
	 viewBox="0 0 40 40" enable-background="new 0 0 40 40" xml:space="preserve">
<path fill="#444444" d="M17.2,34.9c-0.6,0-0.9,0.8-0.5,1.2c0.9,0.8,1.6,1.5,2.2,1.5h2.2c0.6,0,1.2-0.6,2.1-1.5
	c0.5-0.4,0.2-1.2-0.5-1.2H17.2z M24,33.2h-7.9c-0.8,0-1.4-0.6-1.4-1.4s0.6-1.4,1.4-1.4H24c0.8,0,1.4,0.6,1.4,1.4S24.8,33.2,24,33.2z
	 M16,28.7c-0.7,0-1.3-0.5-1.4-1.2c0-0.1-0.3-1.6-1.9-3.9c-0.2-0.3-0.5-0.7-0.7-1c-1.7-2.4-3.4-4.9-3.4-9.2c0-2.6,1.1-5.3,2.9-7.4
	c2.1-2.3,5.1-3.6,8.5-3.6c0.8,0,1.4,0.6,1.4,1.4S20.8,5.2,20,5.2c-3.2,0-5.2,1.5-6.3,2.7c-1.4,1.5-2.2,3.6-2.2,5.6
	c0,3.5,1.4,5.4,2.9,7.6c0.2,0.3,0.5,0.7,0.7,1c2,2.9,2.3,4.8,2.3,5c0.1,0.8-0.4,1.4-1.2,1.6C16.1,28.7,16.1,28.7,16,28.7z M24,28.7
	c-0.1,0-0.1,0-0.2,0c-0.8-0.1-1.3-0.8-1.2-1.6c0-0.2,0.4-2.1,2.3-5c0.2-0.3,0.5-0.7,0.7-1c1.6-2.2,2.9-4.2,2.9-7.6
	c0-1.9-0.9-4-2.3-5.6c-1.6-1.7-3.8-2.7-6.2-2.7c-0.8,0-1.4-0.6-1.4-1.4s0.6-1.4,1.4-1.4c6.8,0,11.4,5.7,11.4,11
	c0,4.3-1.7,6.8-3.4,9.2c-0.2,0.3-0.5,0.7-0.7,1c-1.6,2.4-1.9,3.9-1.9,3.9C25.3,28.2,24.7,28.7,24,28.7z"/>
</svg>
