<?xml version="1.0" encoding="UTF-8" standalone="no"?>
<svg width="32px" height="32px" viewBox="0 0 32 32" version="1.1" xmlns="http://www.w3.org/2000/svg" xmlns:xlink="http://www.w3.org/1999/xlink" xmlns:sketch="http://www.bohemiancoding.com/sketch/ns">
    <!-- Generator: Sketch 3.3.2 (12043) - http://www.bohemiancoding.com/sketch -->
    <title>cite</title>
    <desc>Created with Sketch.</desc>
    <defs></defs>
    <g id="Page-1" stroke="none" stroke-width="1" fill="none" fill-rule="evenodd" sketch:type="MSPage">
        <g id="cite" sketch:type="MSArtboardGroup" fill="#333333">
            <path d="M24.8388889,11.85 C25.1555556,11.7444444 25.4722222,11.5333333 25.6833333,11.2166667 C25.8944444,10.9 26,10.4777778 26,10.0555556 L26,9 C24.6277778,9.21111111 23.9944444,9.21111111 22.5166667,9.84444444 C21.5666667,10.3722222 20.8277778,11.0055556 20.1944444,11.7444444 C19.5611111,12.4833333 17.5555556,15.3333333 17.5555556,19.5555556 L17.5555556,23.7777778 L23.8888889,23.7777778 C25.05,23.7777778 26,22.8277778 26,21.6666667 L26,15.3333333 L21.7777778,15.3333333 C21.7777778,15.3333333 21.8833333,14.3833333 22.6222222,13.4333333 C23.2555556,12.6944444 23.9944444,12.1666667 24.8388889,11.85 Z M9.63888889,11.7444444 C9.00555556,12.4833333 7,15.3333333 7,19.5555556 L7,23.7777778 L13.3333333,23.7777778 C14.4944444,23.7777778 15.4444444,22.8277778 15.4444444,21.6666667 L15.4444444,15.3333333 L11.2222222,15.3333333 C11.2222222,15.3333333 11.3277778,14.3833333 12.0666667,13.4333333 C12.7,12.6944444 13.4388889,12.1666667 14.2833333,11.85 C14.6,11.7444444 14.9166667,11.5333333 15.1277778,11.2166667 C15.3388889,10.9 15.4444444,10.4777778 15.4444444,10.0555556 L15.4444444,9 C14.0722222,9.21111111 13.4388889,9.21111111 11.9611111,9.84444444 C11.1166667,10.3722222 10.2722222,11.0055556 9.63888889,11.7444444 Z" id="Shape-Copy" sketch:type="MSShapeGroup"></path>
        </g>
    </g>
</svg>