<?xml version="1.0" encoding="UTF-8" standalone="no"?>
<svg width="32px" height="32px" viewBox="0 0 32 32" version="1.1" xmlns="http://www.w3.org/2000/svg" xmlns:xlink="http://www.w3.org/1999/xlink" xmlns:sketch="http://www.bohemiancoding.com/sketch/ns">
    <!-- Generator: Sketch 3.3.2 (12043) - http://www.bohemiancoding.com/sketch -->
    <title>link</title>
    <desc>Created with Sketch.</desc>
    <defs></defs>
    <g id="Page-1" stroke="none" stroke-width="1" fill="none" fill-rule="evenodd" sketch:type="MSPage">
        <g id="link" sketch:type="MSArtboardGroup" fill="#333333">
            <g id="path5-+-rect3842" sketch:type="MSLayerGroup" transform="translate(4.000000, 4.000000)">
                <path d="M17.2966888,3.18734357 C15.7853016,3.19552192 14.281507,3.77881763 13.1240575,4.93463289 L10.5943999,7.43821163 C10.3851432,7.64746742 10.1841442,7.91346932 10.0206631,8.14234315 C9.97816064,8.18484557 9.93596532,8.23669302 9.91634728,8.29881682 C11.1457288,7.96531426 12.435873,8.00104617 13.6456364,8.37705365 L13.854268,8.16842209 L15.2364521,6.76015905 C16.4658336,5.53077755 18.4665702,5.53077755 19.6959517,6.76015905 C20.9253332,7.98954056 20.9253332,9.96419823 19.6959517,11.1935797 L18.0529782,12.7843954 L17.7400308,13.1234217 L17.4010045,13.436369 L16.9055046,13.9840269 C16.3627454,14.5267852 15.6559025,14.8282061 14.9235048,14.870711 C14.7763711,14.8903307 14.6108695,14.8903307 14.5062416,14.870711 C14.2544801,14.8510913 14.1150575,14.8185531 14.1150575,14.8185531 C13.5101753,14.7139244 12.9266412,14.4385841 12.446005,13.9579479 C11.9882565,13.5001994 11.7161074,12.9459355 11.6114787,12.3410533 L11.6114787,12.2628165 C11.0687204,12.3053189 10.5434921,12.5256263 10.1249788,12.9408691 L9.2904526,13.7753953 C9.58145023,14.5045234 10.0091357,15.19821 10.5943999,15.7834741 C11.179664,16.3687382 11.8733505,16.819233 12.6024786,17.1135003 C12.7496123,17.1756224 12.8726081,17.2013892 13.0197418,17.243895 C13.1243696,17.2863974 13.260601,17.3057084 13.384847,17.3482108 C13.4044667,17.3482108 13.4434641,17.3546366 13.4630838,17.3742897 C14.6728481,17.6456693 15.9664957,17.5419778 17.1141361,17.0613424 C17.2612698,16.9992203 17.3842656,16.9377215 17.5313993,16.8527108 L17.5313993,16.8266319 C17.551019,16.8070122 17.5900164,16.8234607 17.6096361,16.8005529 C17.6717582,16.7809332 17.7236048,16.7387396 17.7661098,16.6962372 C18.184623,16.4444756 18.5865425,16.1137854 18.9396623,15.7573951 L21.46932,13.2538164 C23.784219,10.9389165 23.784219,7.17129592 21.46932,4.85639606 C20.3314877,3.73327754 18.8080759,3.17916938 17.2966888,3.18734357 L17.2966888,3.18734357 Z M12.0026629,8.87255361 C11.0752622,8.81002256 10.151183,8.95542207 9.2904526,9.31589568 C9.14331894,9.37801781 9.00070508,9.46240427 8.87318947,9.52452724 C8.87318947,9.52452724 8.84711053,9.50490753 8.84711053,9.52452724 C8.82749082,9.54414695 8.7884934,9.55380242 8.76887369,9.57668513 C8.70675156,9.59630484 8.65490495,9.63849015 8.61240002,9.68100091 C8.19388678,9.92949946 7.8115853,10.2406434 7.43884749,10.593764 L4.93526875,13.0973427 C2.62036923,15.4122426 2.62036923,19.1537843 4.93526875,21.4686841 C7.25016862,23.7868537 11.0177901,23.783599 13.3326891,21.4686841 L15.8362678,18.9390264 C16.0651417,18.7297698 16.2693319,18.5094666 16.4360836,18.2609739 C16.478586,18.1988517 16.5207813,18.1405442 16.5403993,18.0784213 C15.3110178,18.4119238 14.0208745,18.40227 12.8111102,18.0262634 L12.6024786,18.2348949 L11.1942156,19.617079 C9.96483409,20.8464614 7.99017642,20.8464614 6.76079492,19.617079 C5.53141341,18.3876975 5.53141341,16.4130407 6.76079492,15.1836583 L8.35161057,13.5928427 L8.66455791,13.2798953 L9.0035842,12.9408691 L9.49908416,12.4453691 C10.0614605,11.8829927 10.7486862,11.5719197 11.481084,11.5065271 C11.6282176,11.4869074 11.7937192,11.4869074 11.8983471,11.5065271 C12.146839,11.5261468 12.2895313,11.558685 12.2895313,11.558685 C12.8944134,11.6633129 13.4779476,11.9647337 13.9585838,12.4453691 C14.4163323,12.9031176 14.6884813,13.4573816 14.79311,14.0622637 L14.79311,14.1144216 C15.3358684,14.0719192 15.8579054,13.8516126 16.253531,13.436369 L17.0880572,12.6018428 C16.7970604,11.8727147 16.369374,11.1757593 15.7841099,10.593764 C15.2021147,10.0117696 14.5051592,9.58408321 13.7760312,9.28981673 C13.6517852,9.2276946 13.5059009,9.17584799 13.358768,9.13334306 C13.2541393,9.09084064 13.1439877,9.07153805 13.0197418,9.02902728 L12.9936628,9.02902728 C12.9740431,9.02902728 12.9611246,9.00294834 12.9415049,9.00294834 C12.6390643,8.93510135 12.3117964,8.89339757 12.0026629,8.87255361 L12.0026629,8.87255361 Z" id="path5" sketch:type="MSShapeGroup"></path>
                <path d="M4.01449445,0.137319981 L4.01449445,3.98518049 L0.166639422,3.98518049 L0.166639422,5.69534022 L4.01449445,5.69534022 L4.01449445,9.54320136 L5.72465187,9.54320136 L5.72465187,5.69534022 L9.57250745,5.69534022 L9.57250745,3.98518049 L5.72465187,3.98518049 L5.72465187,0.137319981 L4.01449445,0.137319981 L4.01449445,0.137319981 Z" id="rect3842" sketch:type="MSShapeGroup"></path>
            </g>
        </g>
    </g>
</svg>