<?xml version="1.0" encoding="UTF-8" standalone="no"?>
<!-- Generator: Adobe Illustrator 18.1.1, SVG Export Plug-In . SVG Version: 6.00 Build 0)  -->

<svg
   xmlns:dc="http://purl.org/dc/elements/1.1/"
   xmlns:cc="http://creativecommons.org/ns#"
   xmlns:rdf="http://www.w3.org/1999/02/22-rdf-syntax-ns#"
   xmlns:svg="http://www.w3.org/2000/svg"
   xmlns="http://www.w3.org/2000/svg"
   xmlns:sodipodi="http://sodipodi.sourceforge.net/DTD/sodipodi-0.dtd"
   xmlns:inkscape="http://www.inkscape.org/namespaces/inkscape"
   version="1.1"
   id="Layer_1"
   x="0px"
   y="0px"
   viewBox="0 0 24 24"
   enable-background="new 0 0 24 24"
   xml:space="preserve"
   inkscape:version="0.48.5 r10040"
   width="100%"
   height="100%"
   sodipodi:docname="restore.svg"><metadata
     id="metadata13"><rdf:RDF><cc:Work
         rdf:about=""><dc:format>image/svg+xml</dc:format><dc:type
           rdf:resource="http://purl.org/dc/dcmitype/StillImage" /></cc:Work></rdf:RDF></metadata><defs
     id="defs11" /><sodipodi:namedview
     pagecolor="#ffffff"
     bordercolor="#666666"
     borderopacity="1"
     objecttolerance="10"
     gridtolerance="10"
     guidetolerance="10"
     inkscape:pageopacity="0"
     inkscape:pageshadow="2"
     inkscape:window-width="717"
     inkscape:window-height="480"
     id="namedview9"
     showgrid="false"
     inkscape:zoom="9.8333333"
     inkscape:cx="12"
     inkscape:cy="11.033898"
     inkscape:window-x="0"
     inkscape:window-y="0"
     inkscape:window-maximized="0"
     inkscape:current-layer="Layer_1" /><path
     style="fill:#72777d;fill-opacity:1"
     inkscape:connector-curvature="0"
     id="path5"
     d="m 11,8 v 6 l 4,3 c 0.7,-0.9 1,-1.9 -0.3,-2.8 L 13,13 V 8 h -2 z" /><path
     style="fill:#72777d;fill-opacity:1"
     inkscape:connector-curvature="0"
     id="path7"
     d="M 21,12 C 20.7,7.4 16.5,3.7 11.9,4 8.5,4.3 5.6,6.4 4.5,9.6 l 1,0.4 C 6,10.2 6.5,10 6.8,9.5 7.8,7.4 10,6 12.5,6 16,6 18.9,8.9 19,12.4 19.1,16 16.1,19 12.5,19 9.6,19 7.1,17.1 6.3,14.4 L 8.5,13.5 4,11.5 2.5,16 4.4,15.2 c 1.1,3.4 4.3,5.8 8.1,5.8 4.9,0 8.8,-4.1 8.5,-9 z" /></svg>