<?xml version="1.0" encoding="UTF-8" standalone="no"?>
<svg width="21px" height="21px" viewBox="0 0 21 21" version="1.1" xmlns="http://www.w3.org/2000/svg" xmlns:xlink="http://www.w3.org/1999/xlink">
    <!-- Generator: Sketch 3.6.1 (26313) - http://www.bohemiancoding.com/sketch -->
    <title>search</title>
    <desc>Created with Sketch.</desc>
    <defs></defs>
    <g id="Page-1" stroke="none" stroke-width="1" fill="none" fill-rule="evenodd">
        <g id="at-1x" transform="translate(-245.000000, -322.000000)" fill="#000000">
            <g id="black" transform="translate(129.500000, 299.587999)">
                <path d="M128.681981,37.2897351 C125.691647,39.501304 121.461354,39.3825289 118.59006,36.7972041 C115.310635,33.8443974 115.04586,28.7921761 117.998666,25.5127521 C120.951473,22.233328 126.003694,21.9685523 129.283118,24.921359 C132.367899,27.6989078 132.785268,32.3340538 130.366323,35.6039543 L136.446258,41.683889 L134.761196,43.3689505 L128.681981,37.2897351 Z M128.959082,35.3815544 L128.959082,35.3815544 C131.456664,32.6077082 131.232708,28.334371 128.458862,25.8367887 C125.685016,23.3392064 121.411679,23.5631625 118.914096,26.3370087 C116.416514,29.1108549 116.64047,33.384192 119.414316,35.8817743 C122.188162,38.3793567 126.4615,38.1554006 128.959082,35.3815544 Z" id="search"></path>
            </g>
        </g>
    </g>
</svg>