<?xml version="1.0" encoding="UTF-8" standalone="no"?>
<svg width="32px" height="32px" viewBox="0 0 32 32" version="1.1" xmlns="http://www.w3.org/2000/svg" xmlns:xlink="http://www.w3.org/1999/xlink" xmlns:sketch="http://www.bohemiancoding.com/sketch/ns">
    <!-- Generator: Sketch 3.3.3 (12072) - http://www.bohemiancoding.com/sketch -->
    <title>globe</title>
    <desc>Created with Sketch.</desc>
    <defs>
        <path d="M13.3650648,2.9996143 C12.2963702,3.0303295 10.3275648,3.2831143 10.3275648,3.2831143 C10.3275648,3.2831143 10.6515648,3.90074902 10.6515648,4.1741143 C10.6515648,4.44747958 10.5705648,5.18258374 10.5705648,5.5106143 C10.5705648,5.83877446 11.7693778,5.5794319 11.9880648,5.4701791 C12.2067648,5.3607967 13.6485648,4.0931791 13.6485648,4.0931791 C13.6485648,4.0931791 14.1769958,3.2993791 14.0130648,3.0806791 C13.9721112,3.0259879 13.7212963,2.9894407 13.3650648,2.9996791 L13.3650648,2.9996143 Z M7.5735648,3.9311143 C7.6508064,4.78162726 8.6670648,5.3486143 8.6670648,5.3486143 L8.8290648,4.7816143 C8.8290648,4.7816143 7.9601616,3.9311143 7.5735648,3.9311143 L7.5735648,3.9311143 Z M6.5610648,4.4981143 C6.5610648,4.4981143 6.0345648,4.9472431 5.1840648,5.0246143 C4.8646656,5.0536447 4.21870032,4.9314319 3.5235648,4.8221143 C1.98386496,6.59746582 0.93845952,8.79044038 0.5670648,11.2211143 L0.8505648,10.8161143 C0.8505648,10.8161143 1.84832928,12.6054497 2.3895648,12.7601143 C2.93078736,12.914753 3.54564864,13.4633239 4.0095648,13.7726143 C4.47349392,14.0818788 4.775436,15.679782 4.6980648,16.6076143 C4.6208232,17.5354596 5.323968,17.6495594 5.7105648,18.2681143 C6.09718752,18.8866692 6.9402744,22.5795175 7.2495648,22.9661143 C7.55884224,23.352737 7.86440016,21.3424596 8.0190648,20.4146143 C8.17370352,19.486782 10.2060648,17.7784466 10.2060648,16.8506143 C10.2060648,15.922782 7.875468,14.6010175 7.4115648,14.1371143 C6.94763568,13.6731852 5.49703584,13.4486143 4.4145648,13.4486143 C3.33210672,13.4486143 3.31741008,11.9869855 2.3895648,11.9096143 C1.46177136,11.8322431 2.5515648,10.6136143 2.5515648,10.6136143 C2.5515648,10.6136143 5.08832928,10.2086143 5.6295648,10.2086143 C6.17081328,10.2086143 6.32910672,8.67698854 6.5610648,7.9811143 C6.79300992,7.28525302 8.51241312,7.3515175 8.6670648,6.8876143 C8.82170352,6.42368518 7.9638552,5.9561143 7.6545648,5.9561143 C7.34528736,5.9561143 6.02350992,6.42739174 5.7915648,6.1181143 C5.55960672,5.80884982 7.1280648,4.8626143 7.1280648,4.8626143 L6.5610648,4.4981143 L6.5610648,4.4981143 Z M18.3060648,4.4981143 C18.0504029,4.5182023 17.8210757,4.5649879 17.7390648,4.6195495 C17.5751338,4.7289319 17.1335866,4.90002982 16.9695648,5.1460495 C16.8056338,5.39208214 16.6161197,5.95402774 16.8075648,6.1180495 C16.9989192,6.28198054 17.1437213,6.32161222 17.2530648,6.2394847 C17.3624472,6.1574479 18.1967213,5.44164118 18.3060648,5.5509847 C18.4154472,5.6603671 18.6725866,6.3204847 18.5085648,6.3204847 C18.3446338,6.3204847 17.1720648,6.6849847 17.1720648,6.6849847 C17.1720648,6.6849847 17.1681768,6.46314838 17.0910648,6.4824847 C17.0136936,6.5017951 17.0871768,6.78714838 17.0100648,6.8064847 C16.9326936,6.8259247 15.9165648,7.2924847 15.9165648,7.2924847 C15.9165648,7.2924847 15.7877424,7.4074399 15.6330648,7.5354847 L15.3090648,7.8594847 C15.3012888,7.8685567 15.2729064,7.8924031 15.2686296,7.8999199 C15.1912584,8.0351575 14.7633062,8.67678118 14.7826296,8.8314199 C14.80194,8.98608454 14.6915208,9.3174199 14.9040648,9.3174199 C15.1166995,9.3174199 16.5489221,8.43376822 16.6455648,8.5884199 C16.7421168,8.74307158 16.8885648,8.7504199 16.8885648,8.7504199 C16.8885648,8.7504199 16.7920128,8.5479199 16.8885648,8.5479199 C16.985376,8.5479199 17.6175648,8.7909199 17.6175648,8.7909199 C17.6175648,8.7909199 17.5226976,8.38776022 17.658,8.4264199 C17.7932376,8.4650407 18.4136846,9.1959199 18.549,9.1959199 C18.6842376,9.1959199 19.0138363,9.1868479 18.9945,8.9934199 C18.9753192,8.80010854 18.9052056,8.55989494 19.1565,8.3859199 C19.4077814,8.21200966 20.1763742,8.08671238 20.331,8.1834199 C20.4856646,8.2799719 20.7250229,8.39144086 20.493,8.5074199 C20.2610419,8.6234119 19.9803024,8.4899239 19.845,8.5478551 C19.7097624,8.6057863 19.3378363,8.97953974 19.3185,9.1148551 C19.2993192,9.2500927 20.0456467,9.84752278 20.007,9.9248551 C19.9683792,10.0022263 19.5835968,10.3703551 19.197,10.3703551 C18.8104032,10.3703551 15.9772694,9.6625447 15.552,9.6818551 C15.1267565,9.7012951 14.7539621,9.8106775 14.58,9.9653551 C14.4061027,10.1200068 13.6641427,10.8057333 13.5675,11.0183551 C13.470948,11.2310028 13.052029,12.2591196 13.284,12.8003551 C13.5159451,13.3416036 14.0405918,14.3237124 14.6205,14.4203551 C15.2003822,14.5169071 15.9045379,14.5592604 16.0785,14.5013551 C16.2523973,14.4434239 17.1931637,15.4871445 17.2125,16.2023551 C17.2316808,16.9175527 17.161956,18.7142623 17.3745,19.1588551 C17.5871218,19.6034479 17.7509491,20.4318511 18.4275,20.3738551 C19.1040509,20.3159239 19.6535419,20.1566325 19.8855,19.8473551 C20.1174451,19.5380647 20.764525,17.9613511 20.9385,17.0528551 C21.1123973,16.1443461 21.916021,14.7802543 22.032,14.2583551 C22.147992,13.7364429 22.163544,13.4409938 21.951,13.2863551 C21.7383653,13.1316905 21.3223363,13.1362913 21.303,12.9623551 C21.28356,12.7884449 21.574525,12.9429151 21.7485,12.9623551 C21.9224102,12.9816655 22.5658483,12.9337135 22.7205,12.7598551 C22.8751517,12.5859449 23.1411427,12.0198132 23.0445,11.7878551 C22.947948,11.5558841 22.518,11.0588551 22.518,11.0588551 C22.518,11.0588551 24.2521128,11.2677962 24.948,11.8283551 C25.352352,12.1540917 25.679255,12.5764322 25.92,12.9218551 C25.8596064,9.73115494 24.6307522,6.82451206 22.6395,4.6193551 C22.6222632,4.6219471 22.5699048,4.6597903 22.5585,4.6597903 C22.2578021,4.6597903 19.926,5.1052903 19.926,5.1052903 C19.926,5.1052903 19.4177088,4.5251359 19.035,4.4977903 C18.8436456,4.4841823 18.5616619,4.4777023 18.306,4.4977903 L18.3060648,4.4981143 Z M15.3495648,6.1991143 C15.3495648,6.1991143 15.0746573,7.3199599 15.471,7.2926143 C15.8673816,7.2652687 15.3495648,6.1991143 15.3495648,6.1991143 L15.3495648,6.1991143 Z M14.8230648,6.6851143 C14.8230648,6.6851143 14.3492213,6.92661094 14.4585648,7.0496143 C14.5679472,7.1726047 14.7952138,7.2399319 14.8635648,7.1306143 C14.9319936,7.0212319 14.8231296,6.6851143 14.8231296,6.6851143 L14.8230648,6.6851143 Z M22.2345648,17.1746143 C22.0774507,17.2086991 21.8915914,17.3350591 21.7890648,17.4581143 C21.6865512,17.5811047 21.5318866,18.0152517 21.5865648,18.2681143 C21.6411264,18.5209769 21.869041,18.8624469 21.9510648,18.8351143 C22.0331016,18.8077687 22.2477322,18.7259911 22.2750648,18.2681143 C22.3024104,17.8102245 22.3771896,17.3986279 22.3155,17.2961143 C22.25394,17.1936007 22.2345,17.1746791 22.2345,17.1746791 L22.2345648,17.1746143 Z" id="path-1"></path>
    </defs>
    <g id="Page-1" stroke="none" stroke-width="1" fill="none" fill-rule="evenodd" sketch:type="MSPage">
        <g id="globe" sketch:type="MSArtboardGroup">
            <g id="world" sketch:type="MSLayerGroup" transform="translate(2.500000, 3.040000)">
                <path d="M13.1625654,25.92 C6.11764029,25.92 0.406600051,20.2089598 0.406600051,13.1640346 C0.406600051,6.11910945 6.11764029,0.408069216 13.1625654,0.408069216 C20.2074906,0.408069216 25.9185308,6.11910945 25.9185308,13.1640346 C25.9185308,20.2089598 20.2074906,25.92 13.1625654,25.92 Z" id="path5753-1-5-3-9-8-2-7-5-8" stroke="#347BFF" stroke-width="2" fill="#347BFF" sketch:type="MSShapeGroup"></path>
                <g id="path6360-91-0-9-0">
                    <use fill="none" sketch:type="MSShapeGroup" xlink:href="#path-1"></use>
                    <use fill="#FFFFFF" fill-rule="evenodd" xlink:href="#path-1"></use>
                </g>
            </g>
        </g>
    </g>
</svg>