<?xml version="1.0" encoding="UTF-8" standalone="no"?>
<svg width="32px" height="32px" viewBox="0 0 32 32" version="1.1" xmlns="http://www.w3.org/2000/svg" xmlns:xlink="http://www.w3.org/1999/xlink" xmlns:sketch="http://www.bohemiancoding.com/sketch/ns">
    <!-- Generator: Sketch 3.3.3 (12072) - http://www.bohemiancoding.com/sketch -->
    <title>mention</title>
    <desc>Created with Sketch.</desc>
    <defs></defs>
    <g id="Page-1" stroke="none" stroke-width="1" fill="none" fill-rule="evenodd" sketch:type="MSPage">
        <g id="mention" sketch:type="MSArtboardGroup" fill="#347BFF">
            <path d="M29.047619,11.3809524 L29.047619,24.6666667 L32,27.6190476 L11.3333333,27.6190476 L11.3333333,11.3809524 L29.047619,11.3809524 L29.047619,11.3809524 Z M3.95238095,4 L21.6666667,4 L21.6666667,9.9047619 L9.85714286,9.9047619 L9.85714286,20.2380952 L1,20.2380952 L3.95238095,17.2857143 L3.95238095,4 Z M25,22.8 C24.28,22.56 22.6,21.9 22.6,21.9 C22.06,21.72 22.06,21.24 22,20.7 L22,20.64 C22.84,19.92 23.5,18.72 23.5,17.4 C23.5,14.58 22.3,13.5 20.5,13.5 C19.24,13.5 17.5,14.22 17.5,17.4 C17.5,18.66 18.16,19.86 19,20.64 L19,20.7 C19,21.24 18.94,21.72 18.4,21.9 C18.4,21.9 16.66,22.56 16,22.8 C15.22,23.04 14.5,23.4 14.5,24.3 L14.5,24.9 L26.5,24.9 L26.5,24.3 C26.5,23.58 26.02,23.1 25,22.8 Z" id="Shape" sketch:type="MSShapeGroup"></path>
        </g>
    </g>
</svg>