<?xml version="1.0" encoding="UTF-8" standalone="no"?>
<svg width="15px" height="15px" viewBox="0 0 15 15" version="1.1" xmlns="http://www.w3.org/2000/svg" xmlns:xlink="http://www.w3.org/1999/xlink" xmlns:sketch="http://www.bohemiancoding.com/sketch/ns">
    <!-- Generator: Sketch 3.3.3 (12072) - http://www.bohemiancoding.com/sketch -->
    <title>more</title>
    <desc>Created with Sketch.</desc>
    <defs></defs>
    <g id="Page-1" stroke="none" stroke-width="1" fill="none" fill-rule="evenodd" sketch:type="MSPage">
        <g id="more" sketch:type="MSArtboardGroup" fill="#777777">
            <path d="M4.11764706,7.64705882 C4.11764706,8.14117647 3.95294118,8.47058824 3.62352941,8.8 C3.29411765,9.12941176 2.88235294,9.29411765 2.47058824,9.29411765 C1.97647059,9.29411765 1.64705882,9.12941176 1.31764706,8.8 C0.988235294,8.47058824 0.823529412,8.05882353 0.823529412,7.64705882 C0.823529412,7.23529412 0.988235294,6.82352941 1.31764706,6.49411765 C1.64705882,6.16470588 2.05882353,6 2.47058824,6 C2.88235294,6 3.29411765,6.16470588 3.62352941,6.49411765 C3.95294118,6.82352941 4.11764706,7.23529412 4.11764706,7.64705882 Z M9.05882353,7.64705882 C9.05882353,8.14117647 8.89411765,8.47058824 8.56470588,8.8 C8.23529412,9.12941176 7.82352941,9.29411765 7.41176471,9.29411765 C6.91764706,9.29411765 6.58823529,9.12941176 6.25882353,8.8 C5.92941176,8.47058824 5.76470588,8.05882353 5.76470588,7.64705882 C5.76470588,7.23529412 5.92941176,6.82352941 6.25882353,6.49411765 C6.58823529,6.16470588 7,6 7.41176471,6 C7.82352941,6 8.23529412,6.16470588 8.56470588,6.49411765 C8.89411765,6.82352941 9.05882353,7.23529412 9.05882353,7.64705882 Z M14,7.64705882 C14,8.14117647 13.8352941,8.47058824 13.5058824,8.8 C13.1764706,9.12941176 12.7647059,9.29411765 12.3529412,9.29411765 C11.8588235,9.29411765 11.5294118,9.12941176 11.2,8.8 C10.8705882,8.47058824 10.7058824,8.05882353 10.7058824,7.64705882 C10.7058824,7.23529412 10.8705882,6.82352941 11.2,6.49411765 C11.5294118,6.16470588 11.9411765,6 12.3529412,6 C12.7647059,6 13.1764706,6.16470588 13.5058824,6.49411765 C13.8352941,6.82352941 14,7.23529412 14,7.64705882 Z" id="Shape" sketch:type="MSShapeGroup"></path>
        </g>
    </g>
</svg>