<?xml version="1.0" encoding="UTF-8" standalone="no"?>
<svg width="20px" height="20px" viewBox="0 0 20 20" version="1.1" xmlns="http://www.w3.org/2000/svg" xmlns:xlink="http://www.w3.org/1999/xlink" xmlns:sketch="http://www.bohemiancoding.com/sketch/ns">
    <!-- Generator: Sketch 3.3.3 (12072) - http://www.bohemiancoding.com/sketch -->
    <title>settings</title>
    <desc>Created with Sketch.</desc>
    <defs></defs>
    <g id="Page-1" stroke="none" stroke-width="1" fill="none" fill-rule="evenodd" sketch:type="MSPage">
        <g id="settings" sketch:type="MSArtboardGroup" fill="#333333">
            <path d="M18,11.5 L18,8.6 L16.2,8.3 C16.1,7.9 15.9,7.5 15.6,6.9 L16.7,5.4 L14.6,3.3 L13.1,4.4 C12.6,4.1 12.1,3.9 11.7,3.8 L11.5,2 L8.6,2 L8.3,3.8 C7.8,3.9 7.4,4.1 6.9,4.4 L5.4,3.3 L3.3,5.4 L4.3,6.9 C4,7.4 3.9,7.8 3.7,8.3 L2,8.5 L2,11.4 L3.8,11.7 C3.9,12.2 4.1,12.6 4.4,13.1 L3.4,14.6 L5.5,16.7 L7,15.7 C7.4,15.9 7.9,16.1 8.4,16.3 L8.7,18.1 L11.7,18.1 L12,16.3 C12.5,16.2 12.9,16 13.4,15.7 L14.9,16.8 L17,14.7 L15.9,13.2 C16.2,12.7 16.4,12.2 16.5,11.8 L18,11.5 L18,11.5 Z M10,13 C8.3,13 7,11.7 7,10 C7,8.3 8.3,7 10,7 C11.7,7 13,8.3 13,10 C13,11.7 11.7,13 10,13 L10,13 Z" id="Shape" sketch:type="MSShapeGroup"></path>
        </g>
    </g>
</svg>