<?xml version="1.0" encoding="UTF-8" standalone="no"?>
<svg width="32px" height="32px" viewBox="0 0 32 32" version="1.1" xmlns="http://www.w3.org/2000/svg" xmlns:xlink="http://www.w3.org/1999/xlink" xmlns:sketch="http://www.bohemiancoding.com/sketch/ns">
    <!-- Generator: Sketch 3.3.3 (12072) - http://www.bohemiancoding.com/sketch -->
    <title>thanks</title>
    <desc>Created with Sketch.</desc>
    <defs></defs>
    <g id="Page-1" stroke="none" stroke-width="1" fill="none" fill-rule="evenodd" sketch:type="MSPage">
        <g id="thanks" sketch:type="MSArtboardGroup" fill="#00AF89">
            <path d="M4.8,5 L4.8,22.5238095 L0,27.3030303 L27.2,27.3030303 C29.92,27.3030303 32,25.2320346 32,22.5238095 L32,5 L4.8,5 L4.8,5 Z M22.72,8.98268398 C23.84,8.98268398 24.64,9.93852814 24.64,10.8943723 C24.64,11.8502165 23.84,12.965368 22.72,12.965368 C21.6,12.965368 20.8,12.0095238 20.8,11.0536797 C20.8,10.0978355 21.76,8.98268398 22.72,8.98268398 L22.72,8.98268398 Z M14.08,8.98268398 C15.2,8.98268398 16,9.93852814 16,10.8943723 C16,11.8502165 15.04,12.965368 14.08,12.965368 C13.12,12.965368 12.16,12.0095238 12.16,11.0536797 C12.16,10.0978355 12.96,8.98268398 14.08,8.98268398 L14.08,8.98268398 Z M18.4,22.5238095 C10.24,22.5238095 8.8,14.5584416 8.8,14.5584416 C8.8,14.5584416 12,16.1515152 18.4,16.1515152 C24.8,16.1515152 28,14.5584416 28,14.5584416 C28,14.5584416 26.4,22.5238095 18.4,22.5238095 L18.4,22.5238095 Z" id="Shape" sketch:type="MSShapeGroup"></path>
        </g>
    </g>
</svg>