<?xml version="1.0" encoding="UTF-8" standalone="no"?>
<svg width="15px" height="15px" viewBox="0 0 15 15" version="1.1" xmlns="http://www.w3.org/2000/svg" xmlns:xlink="http://www.w3.org/1999/xlink" xmlns:sketch="http://www.bohemiancoding.com/sketch/ns">
    <!-- Generator: Sketch 3.3.3 (12072) - http://www.bohemiancoding.com/sketch -->
    <title>user</title>
    <desc>Created with Sketch.</desc>
    <defs></defs>
    <g id="Page-1" stroke="none" stroke-width="1" fill="none" fill-rule="evenodd" sketch:type="MSPage">
        <g id="user" sketch:type="MSArtboardGroup" fill="#777777">
            <path d="M12.375,11.075 C11.595,10.815 9.775,10.1 9.775,10.1 C9.19,9.905 9.19,9.385 9.125,8.8 L9.125,8.735 C10.035,7.955 10.75,6.655 10.75,5.225 C10.75,2.17 9.45,1 7.5,1 C6.135,1 4.25,1.78 4.25,5.225 C4.25,6.59 4.965,7.89 5.875,8.735 L5.875,8.8 C5.875,9.385 5.81,9.905 5.225,10.1 C5.225,10.1 3.34,10.815 2.625,11.075 C1.78,11.335 1,11.725 1,12.7 L1,13.35 L14,13.35 L14,12.7 C14,11.92 13.48,11.4 12.375,11.075 L12.375,11.075 Z" id="Shape" sketch:type="MSShapeGroup"></path>
        </g>
    </g>
</svg>