<?xml version="1.0" encoding="utf-8"?>
<!-- Generator: Adobe Illustrator 18.0.0, SVG Export Plug-In . SVG Version: 6.00 Build 0)  -->
<!DOCTYPE svg PUBLIC "-//W3C//DTD SVG 1.1//EN" "http://www.w3.org/Graphics/SVG/1.1/DTD/svg11.dtd">
<svg version="1.1" id="Layer_1" xmlns="http://www.w3.org/2000/svg" xmlns:xlink="http://www.w3.org/1999/xlink" x="0px" y="0px"
	 viewBox="128 0 768 768" enable-background="new 128 0 768 768" xml:space="preserve">
<path fill="#FFFFFF" d="M896,454.4V313.6l-86.4-14.4c-6.4-23.2-16-45.6-27.2-65.6l50.4-71.2l-99.2-100l-71.2,50.4
	C641.6,101.6,620,92,596.8,85.6L582.4,0H441.6l-14.4,86.4c-23.2,6.4-45.6,16-65.6,27.2l-71.2-50.4l-100,99.2l50.4,71.2
	C229.6,254.4,220,276,213.6,300L128,313.6v140.8l85.6,14.4c6.4,23.2,16,45.6,27.2,66.4l-50.4,71.2l99.2,99.2l71.2-50.4
	c20.8,11.2,42.4,20.8,66.4,27.2l14.4,85.6h140.8l14.4-86.4c23.2-6.4,45.6-16,65.6-27.2l71.2,50.4l99.2-99.2l-50.4-71.2
	c11.2-20.8,20.8-42.4,27.2-66.4L896,454.4z M512,531.2c-81.6,0-147.2-66.4-147.2-147.2c0-81.6,66.4-147.2,147.2-147.2
	S659.2,302.4,659.2,384S593.6,531.2,512,531.2z"/>
</svg>
