<?xml version="1.0" encoding="UTF-8"?>
<svg width="24px" height="24px" viewBox="0 0 24 24" version="1.1" xmlns="http://www.w3.org/2000/svg" xmlns:xlink="http://www.w3.org/1999/xlink">
    <!-- Generator: Sketch 42 (36781) - http://www.bohemiancoding.com/sketch -->
    <title>add-namespace</title>
    <desc>Created with Sketch.</desc>
    <defs></defs>
    <g id="Extended-options" stroke="none" stroke-width="1" fill="none" fill-rule="evenodd">
        <g id="add-namespace" fill="#222222">
            <path d="M13,11 L17,11 L17,6 L13,6 L13,11 Z M8,13 L17,13 L17,12 L8,12 L8,13 Z M8,15 L17,15 L17,14 L8,14 L8,15 Z M8,17 L17,17 L17,16 L8,16 L8,17 Z M12,8 L8,8 L8,9 L12,9 L12,8 Z M12,10 L8,10 L8,11 L12,11 L12,10 Z M12,6 L8,6 L8,7 L12,7 L12,6 Z M19,4 L19,20 L9,20 C7.3,20 6,18.7 6,17 L6,4 L19,4 Z" id="Page-1"></path>
        </g>
    </g>
</svg>