<?xml version="1.0" encoding="UTF-8"?>
<svg width="24px" height="24px" viewBox="0 0 24 24" version="1.1" xmlns="http://www.w3.org/2000/svg" xmlns:xlink="http://www.w3.org/1999/xlink">
    <!-- Generator: Sketch 42 (36781) - http://www.bohemiancoding.com/sketch -->
    <title>add-tag</title>
    <desc>Created with Sketch.</desc>
    <defs></defs>
    <g id="Extended-options" stroke="none" stroke-width="1" fill="none" fill-rule="evenodd">
        <g id="add-tag" fill="#222222">
            <path d="M20.5980959,14.6061028 C20.6486757,14.554156 20.6855853,14.5076773 20.7115586,14.4584645 C20.9002075,14.1918955 21,13.8829489 21,13.5548639 L21,8.58711095 C21,8.16470157 20.8332235,7.76416453 20.533846,7.46478701 C20.2344684,7.16814354 19.8352984,7 19.4128891,7 L14.4437691,7 C14.0910777,7 13.7588917,7.11482973 13.4786525,7.33218601 C13.4649823,7.34038814 13.2941047,7.49212743 13.2339558,7.56457952 L7.3147565,13.4714756 C6.89508117,13.889784 6.89508117,14.5705602 7.3147565,14.9875015 L13.0083974,20.6838765 C13.4280727,21.1035518 14.107482,21.1035518 14.5257903,20.6838765 L20.5980959,14.6061028 Z M18.3397779,9.66158916 C19.1340168,10.4558281 19.1326498,11.7367265 18.3397779,12.5268644 C17.5496399,13.3197364 16.2660076,13.3197364 15.4731356,12.5268644 C14.6829977,11.7367265 14.6816307,10.4517271 15.4731356,9.66158916 C16.2646405,8.87008422 17.551007,8.87008422 18.3397779,9.66158916 L18.3397779,9.66158916 Z" id="Page-1"></path>
            <polygon id="Page-1-Copy-2" points="1 10.0377357 1 10.962264 4.03773599 10.962264 4.03773599 14 4.96226434 14 4.96226434 10.962264 8 10.9622643 8 10.037736 4.96226434 10.0377357 4.96226401 7 4.03773566 7 4.03773599 10.0377357"></polygon>
        </g>
    </g>
</svg>