<?xml version="1.0" encoding="UTF-8" standalone="no"?>
<svg
   xmlns:dc="http://purl.org/dc/elements/1.1/"
   xmlns:cc="http://creativecommons.org/ns#"
   xmlns:rdf="http://www.w3.org/1999/02/22-rdf-syntax-ns#"
   xmlns:svg="http://www.w3.org/2000/svg"
   xmlns="http://www.w3.org/2000/svg"
   xmlns:sodipodi="http://sodipodi.sourceforge.net/DTD/sodipodi-0.dtd"
   xmlns:inkscape="http://www.inkscape.org/namespaces/inkscape"
   version="1.1"
   x="0px"
   y="0px"
   viewBox="0 0 24 24"
   enable-background="new 0 0 100 100"
   xml:space="preserve"
   id="svg2"
   inkscape:version="0.91 r13725"
   sodipodi:docname="pin-blue.svg"
   width="24"
   height="24"><metadata
     id="metadata10"><rdf:RDF><cc:Work
         rdf:about=""><dc:format>image/svg+xml</dc:format><dc:type
           rdf:resource="http://purl.org/dc/dcmitype/StillImage" /><dc:title /></cc:Work></rdf:RDF></metadata><defs
     id="defs8" /><sodipodi:namedview
     pagecolor="#ffffff"
     bordercolor="#666666"
     borderopacity="1"
     objecttolerance="10"
     gridtolerance="10"
     guidetolerance="10"
     inkscape:pageopacity="0"
     inkscape:pageshadow="2"
     inkscape:window-width="1199"
     inkscape:window-height="656"
     id="namedview6"
     showgrid="false"
     inkscape:zoom="2.36"
     inkscape:cx="-16.949153"
     inkscape:cy="33.050847"
     inkscape:window-x="0"
     inkscape:window-y="0"
     inkscape:window-maximized="0"
     inkscape:current-layer="svg2" /><path
     d="m 17.690114,12.994225 c -0.850001,-0.976888 -1.85489,-0.772 -3.013112,-1.848222 -0.574668,-0.534 -0.520001,-3.8573345 -0.520001,-3.8573345 0,0 -0.04311,-2.8815565 0.547111,-3.472001 0.408,-0.4071113 1.124445,-0.5124447 1.541778,-0.9222226 0.004,-0.00289 0.0067,-0.00555 0.0096,-0.00933 0.09022,-0.090222 0.163334,-0.1964446 0.217334,-0.3224445 0.0067,-0.013333 0.014,-0.023555 0.01867,-0.036666 0.03666,-0.096 0.05644,-0.2086666 0.06689,-0.3300001 0.0029,-0.031111 0.01778,-0.057333 0.01778,-0.088444 0,-0.00555 -0.0029,-0.010219 -0.0037,-0.015999 8.89e-4,-0.00845 0.0037,-0.014889 0.0037,-0.023333 0,-0.020667 -0.01577,-0.031111 -0.01778,-0.049999 -0.04827,-0.5680071 -0.509827,-1.0182294 -1.089827,-1.0182294 l -6.9373347,0 c -0.5800005,0 -1.0417784,0.4502223 -1.0895558,1.0182226 -0.00198,0.018667 -0.017996,0.029112 -0.017996,0.049999 0,0.00845 0.00286,0.014888 0.00374,0.023333 -8.899e-4,0.00578 -0.00374,0.010439 -0.00374,0.015999 0,0.031111 0.015114,0.057333 0.017996,0.088444 0.01023,0.1211112 0.029997,0.2340001 0.066671,0.3300001 0.00462,0.013111 0.012221,0.023333 0.018887,0.036666 0.053559,0.126 0.1268883,0.2322223 0.2171104,0.3224446 0.00286,0.00377 0.00561,0.00645 0.00935,0.00933 0.4173335,0.4100001 1.133778,0.5151113 1.541778,0.9222225 0.5904443,0.5904446 0.5471113,3.472001 0.5471113,3.472001 0,0 0.05467,3.3233353 -0.5199996,3.8573343 -1.158,1.076223 -2.1628899,0.871335 -3.0126677,1.848223 -0.6017783,0.692 -0.491556,1.925334 -0.491556,1.925334 l 5.7046681,0 0,5.02689 L 11.949686,23 l 0.101552,0 0.426889,-3.053557 0,-5.02689 5.703557,0 c 0,0 0.11,-1.233334 -0.491555,-1.925334 z"
     id="path4"
     style="fill:#3366cc;fill-opacity:1"
     inkscape:connector-curvature="0" /></svg>