<?xml version="1.0" encoding="UTF-8" standalone="no"?>
<svg width="24px" height="24px" viewBox="0 0 24 24" version="1.1" xmlns="http://www.w3.org/2000/svg" xmlns:xlink="http://www.w3.org/1999/xlink" xmlns:sketch="http://www.bohemiancoding.com/sketch/ns">
    <!-- Generator: Sketch 3.5.2 (25235) - http://www.bohemiancoding.com/sketch -->
    <title>all-pages</title>
    <desc>Created with Sketch.</desc>
    <defs></defs>
    <g id="Page-1" stroke="none" stroke-width="1" fill="none" fill-rule="evenodd" sketch:type="MSPage">
        <g id="all-pages" sketch:type="MSArtboardGroup" fill="#333333">
            <path d="M9.66179474,10.6617947 L15.1828203,10.6617947 L15.1828203,3.76051278 L9.66179474,3.76051278 L9.66179474,10.6617947 L9.66179474,10.6617947 Z M2.76051278,13.4223075 L15.1828203,13.4223075 L15.1828203,12.0420511 L2.76051278,12.0420511 L2.76051278,13.4223075 L2.76051278,13.4223075 Z M2.76051278,16.1828203 L15.1828203,16.1828203 L15.1828203,14.8025639 L2.76051278,14.8025639 L2.76051278,16.1828203 L2.76051278,16.1828203 Z M2.76051278,18.9433331 L15.1828203,18.9433331 L15.1828203,17.5630767 L2.76051278,17.5630767 L2.76051278,18.9433331 L2.76051278,18.9433331 Z M8.28153835,6.52102557 L2.76051278,6.52102557 L2.76051278,7.90128196 L8.28153835,7.90128196 L8.28153835,6.52102557 L8.28153835,6.52102557 Z M8.28153835,9.28153835 L2.76051278,9.28153835 L2.76051278,10.6617947 L8.28153835,10.6617947 L8.28153835,9.28153835 L8.28153835,9.28153835 Z M8.28153835,3.76051278 L2.76051278,3.76051278 L2.76051278,5.14076918 L8.28153835,5.14076918 L8.28153835,3.76051278 L8.28153835,3.76051278 Z M0,1 L17.9433331,1 L17.9433331,23.0841023 L4.14076918,23.0841023 C1.79433331,23.0841023 0,21.289769 0,18.9433331 L0,1 Z M19.2249997,1 L19.2249997,22.788333 L20.5066664,22.788333 L20.5066664,1 L19.2249997,1 Z M21.788333,1 L21.788333,22.788333 L23.0699997,22.788333 L23.0699997,1 L21.788333,1 Z" id="Page-1-Copy-6" sketch:type="MSShapeGroup"></path>
        </g>
    </g>
</svg>