<?xml version="1.0" encoding="UTF-8" standalone="no"?>
<svg width="24px" height="24px" viewBox="0 0 24 24" version="1.1" xmlns="http://www.w3.org/2000/svg" xmlns:xlink="http://www.w3.org/1999/xlink" xmlns:sketch="http://www.bohemiancoding.com/sketch/ns">
    <!-- Generator: Sketch 3.5.1 (25234) - http://www.bohemiancoding.com/sketch -->
    <title>check-unread</title>
    <desc>Created with Sketch.</desc>
    <defs>
        <circle id="path-1" cx="6.5" cy="6.5" r="6.5"></circle>
    </defs>
    <g id="Page-1" stroke="none" stroke-width="1" fill="none" fill-rule="evenodd" sketch:type="MSPage">
        <g id="check-unread" sketch:type="MSArtboardGroup">
            <g id="Group" sketch:type="MSLayerGroup" transform="translate(6.000000, 6.000000)">
                <g id="Oval-5-Copy-2">
                    <use fill="none" sketch:type="MSShapeGroup" xlink:href="#path-1"></use>
                    <use fill="#FFFFFF" fill-rule="evenodd" xlink:href="#path-1"></use>
                    <use fill="none" xlink:href="#path-1"></use>
                    <use fill="none" xlink:href="#path-1"></use>
                </g>
                <path d="M6.5,13 C10.0898509,13 13,10.0898509 13,6.5 C13,2.91014913 10.0898509,0 6.5,0 C2.91014913,0 0,2.91014913 0,6.5 C0,10.0898509 2.91014913,13 6.5,13 L6.5,13 Z M6.5,11.8181818 C3.56284929,11.8181818 1.18181818,9.43715071 1.18181818,6.5 C1.18181818,3.56284929 3.56284929,1.18181818 6.5,1.18181818 C9.43715071,1.18181818 11.8181818,3.56284929 11.8181818,6.5 C11.8181818,9.43715071 9.43715071,11.8181818 6.5,11.8181818 L6.5,11.8181818 Z" id="Shape" fill="#347BFF" sketch:type="MSShapeGroup"></path>
            </g>
        </g>
    </g>
</svg>