<?xml version="1.0" encoding="UTF-8" standalone="no"?>
<svg width="30px" height="30px" viewBox="0 0 30 30" version="1.1" xmlns="http://www.w3.org/2000/svg" xmlns:xlink="http://www.w3.org/1999/xlink" xmlns:sketch="http://www.bohemiancoding.com/sketch/ns">
    <!-- Generator: Sketch 3.4.4 (17249) - http://www.bohemiancoding.com/sketch -->
    <title>edit-user-talk</title>
    <desc>Created with Sketch.</desc>
    <defs></defs>
    <g id="Page-1" stroke="none" stroke-width="1" fill="none" fill-rule="evenodd" sketch:type="MSPage">
        <g id="edit-user-talk" sketch:type="MSArtboardGroup" fill="#165CA0">
            <path d="M27.1428571,10.1428571 L27.1428571,23 L30,25.8571429 L10,25.8571429 L10,10.1428571 L27.1428571,10.1428571 L27.1428571,10.1428571 Z M2.85714286,3 L20,3 L20,8.71428571 L8.57142857,8.71428571 L8.57142857,18.7142857 L0,18.7142857 L2.85714286,15.8571429 L2.85714286,3 Z M20.8636364,20.6363636 C20.3727273,20.4727273 20.3727273,20.0363636 20.3181818,19.5454545 L20.3181818,19.4909091 C21.0818182,18.8363636 21.6818182,17.7454545 21.6818182,16.5454545 C21.6818182,13.9818182 20.5909091,13 18.9545455,13 C17.8090909,13 16.2272727,13.6545455 16.2272727,16.5454545 C16.2272727,17.6909091 16.8272727,18.7818182 17.5909091,19.4909091 L17.5909091,19.5454545 C17.5909091,20.0363636 17.5363636,20.4727273 17.0454545,20.6363636 C17.0454545,20.6363636 15.4636364,21.2363636 14.8636364,21.4545455 C14.1545455,21.6727273 13.5,22 13.5,22.8181818 L13.5,23.3636364 L24.4090909,23.3636364 L24.4090909,22.8181818 C24.4090909,22.1636364 23.9727273,21.7272727 23.0454545,21.4545455 C22.3909091,21.2363636 20.8636364,20.6363636 20.8636364,20.6363636 Z" id="Shape-Copy-15" sketch:type="MSShapeGroup"></path>
        </g>
    </g>
</svg>