<?xml version="1.0" encoding="UTF-8" standalone="no"?>
<svg width="30px" height="30px" viewBox="0 0 30 30" version="1.1" xmlns="http://www.w3.org/2000/svg" xmlns:xlink="http://www.w3.org/1999/xlink" xmlns:sketch="http://www.bohemiancoding.com/sketch/ns">
    <!-- Generator: Sketch 3.5.1 (25234) - http://www.bohemiancoding.com/sketch -->
    <title>global</title>
    <desc>Created with Sketch.</desc>
    <defs></defs>
    <g id="Page-1" stroke="none" stroke-width="1" fill="none" fill-rule="evenodd" sketch:type="MSPage">
        <g id="global" sketch:type="MSArtboardGroup" fill="#165CA0">
            <path d="M15,30 C6.71572875,30 -4.61852778e-14,23.2842712 -4.61852778e-14,15 C-4.61852778e-14,6.71572875 6.71572875,-1.77635684e-15 15,-1.77635684e-15 C23.2842712,-1.77635684e-15 30,6.71572875 30,15 C30,23.2842712 23.2842712,30 15,30 Z M15.0467051,4.1618775 C13.8592667,4.1960055 11.6717051,4.4768775 11.6717051,4.4768775 C11.6717051,4.4768775 12.0317051,5.1631383 12.0317051,5.4668775 C12.0317051,5.7706167 11.9417051,6.5873991 11.9417051,6.9518775 C11.9417051,7.3164999 13.2737195,7.0283415 13.5167051,6.9069495 C13.7597051,6.7854135 15.3617051,5.3769495 15.3617051,5.3769495 C15.3617051,5.3769495 15.9488507,4.4949495 15.7667051,4.2519495 C15.7212011,4.1911815 15.4425179,4.1505735 15.0467051,4.1619495 L15.0467051,4.1618775 Z M8.61170512,5.1968775 C8.69752912,6.1418919 9.82670512,6.7718775 9.82670512,6.7718775 L10.0067051,6.1418775 C10.0067051,6.1418775 9.04125712,5.1968775 8.61170512,5.1968775 L8.61170512,5.1968775 Z M7.48670512,5.8268775 C7.48670512,5.8268775 6.90170512,6.3259095 5.95670512,6.4118775 C5.60181712,6.4441335 4.88407792,6.3083415 4.11170512,6.1868775 C2.40092752,8.1594903 1.23936592,10.5961287 0.82670512,13.2968775 L1.14170512,12.8468775 C1.14170512,12.8468775 2.25033232,14.8350279 2.85170512,15.0068775 C3.45306352,15.1786983 4.13624272,15.7882215 4.65170512,16.1318775 C5.16718192,16.4755047 5.50267312,18.2509527 5.41670512,19.2818775 C5.33088112,20.3128167 6.11215312,20.4395943 6.54170512,21.1268775 C6.97128592,21.8141607 7.90804912,25.9173255 8.25170512,26.3468775 C8.59534672,26.7764583 8.93485552,24.5428167 9.10670512,23.5118775 C9.27852592,22.4809527 11.5367051,20.5828023 11.5367051,19.5518775 C11.5367051,18.5209527 8.94715312,17.0523255 8.43170512,16.5368775 C7.91622832,16.0214007 6.30445072,15.7718775 5.10170512,15.7718775 C3.89897392,15.7718775 3.88264432,14.1478455 2.85170512,14.0618775 C1.82082352,13.9759095 3.03170512,12.6218775 3.03170512,12.6218775 C3.03170512,12.6218775 5.85033232,12.1718775 6.45170512,12.1718775 C7.05309232,12.1718775 7.22897392,10.4700711 7.48670512,9.6968775 C7.74442192,8.9236983 9.65486992,8.9973255 9.82670512,8.4818775 C9.99852592,7.9664007 9.04536112,7.4468775 8.70170512,7.4468775 C8.35806352,7.4468775 6.88942192,7.9705191 6.63170512,7.6268775 C6.37397392,7.2832503 8.11670512,6.2318775 8.11670512,6.2318775 L7.48670512,5.8268775 L7.48670512,5.8268775 Z M20.5367051,5.8268775 C20.2526363,5.8491975 19.9978283,5.9011815 19.9067051,5.9618055 C19.7245595,6.0833415 19.2339515,6.2734503 19.0517051,6.5468055 C18.8695595,6.8201751 18.6589883,7.4445591 18.8717051,7.6268055 C19.0843211,7.8089511 19.2452123,7.8529863 19.3667051,7.7617335 C19.4882411,7.6705815 20.4152123,6.8752407 20.5367051,6.9967335 C20.6582411,7.1182695 20.9439515,7.8517335 20.7617051,7.8517335 C20.5795595,7.8517335 19.2767051,8.2567335 19.2767051,8.2567335 C19.2767051,8.2567335 19.2723851,8.0102487 19.1867051,8.0317335 C19.1007371,8.0531895 19.1823851,8.3702487 19.0967051,8.3917335 C19.0107371,8.4133335 17.8817051,8.9317335 17.8817051,8.9317335 C17.8817051,8.9317335 17.7385691,9.0594615 17.5667051,9.2017335 L17.2067051,9.5617335 C17.1980651,9.5718135 17.1665291,9.5983095 17.1617771,9.6066615 C17.0758091,9.7569255 16.6003067,10.4698407 16.6217771,10.6416615 C16.6432331,10.8135111 16.5205451,11.1816615 16.7567051,11.1816615 C16.9929659,11.1816615 18.5843243,10.1998263 18.6917051,10.3716615 C18.7989851,10.5434967 18.9617051,10.5516615 18.9617051,10.5516615 C18.9617051,10.5516615 18.8544251,10.3266615 18.9617051,10.3266615 C19.0692731,10.3266615 19.7717051,10.5966615 19.7717051,10.5966615 C19.7717051,10.5966615 19.6662971,10.1487063 19.8166331,10.1916615 C19.9668971,10.2345735 20.6562827,11.0466615 20.8066331,11.0466615 C20.9568971,11.0466615 21.3231179,11.0365815 21.3016331,10.8216615 C21.2803211,10.6068711 21.2024171,10.3399671 21.4816331,10.1466615 C21.7608347,9.9534279 22.6148267,9.8142087 22.7866331,9.9216615 C22.9584827,10.0289415 23.2244363,10.1527959 22.9666331,10.2816615 C22.7089019,10.4105415 22.3969691,10.2622215 22.2466331,10.3265895 C22.0963691,10.3909575 21.6831179,10.8062391 21.6616331,10.9565895 C21.6403211,11.1068535 22.4695739,11.7706647 22.4266331,11.8565895 C22.3837211,11.9425575 21.9561851,12.3515895 21.5266331,12.3515895 C21.0970811,12.3515895 17.9491547,11.5651335 17.4766331,11.5865895 C17.0041403,11.6081895 16.5899243,11.7297255 16.3966331,11.9015895 C16.2034139,12.0734247 15.3790139,12.8353431 15.2716331,13.0715895 C15.1643531,13.3078647 14.6988875,14.4502167 14.9566331,15.0515895 C15.2143499,15.6529767 15.7972907,16.7442087 16.4416331,16.8515895 C17.0859467,16.9588695 17.8683419,17.0059287 18.0616331,16.9415895 C18.2548523,16.8772215 19.3001483,18.0369111 19.3216331,18.8315895 C19.3429451,19.6262535 19.2654731,21.6225975 19.5016331,22.1165895 C19.7378795,22.6105815 19.9199099,23.5310295 20.6716331,23.4665895 C21.4233563,23.4022215 22.0339019,23.2252311 22.2916331,22.8815895 C22.5493499,22.5379335 23.2683275,20.7860295 23.4616331,19.7765895 C23.6548523,18.7671351 24.5477675,17.2514775 24.6766331,16.6715895 C24.8055131,16.0916871 24.8227931,15.7634103 24.5866331,15.5915895 C24.3503723,15.4197399 23.8881179,15.4248519 23.8666331,15.2315895 C23.8450331,15.0383559 24.1683275,15.2099895 24.3616331,15.2315895 C24.5548667,15.2530455 25.2697979,15.1997655 25.4416331,15.0065895 C25.6134683,14.8133559 25.9090139,14.1843207 25.8016331,13.9265895 C25.6943531,13.6688439 25.2166331,13.1165895 25.2166331,13.1165895 C25.2166331,13.1165895 27.1434251,13.3487463 27.9166331,13.9715895 C28.3659131,14.3335191 28.7291387,14.8027863 28.9966331,15.1865895 C28.9295291,11.6413671 27.5641355,8.4117639 25.3516331,5.9615895 C25.3324811,5.9644695 25.2743051,6.0065175 25.2616331,6.0065175 C24.9275243,6.0065175 22.3366331,6.5015175 22.3366331,6.5015175 C22.3366331,6.5015175 21.7718651,5.8569015 21.3466331,5.8265175 C21.1340171,5.8113975 20.8207019,5.8041975 20.5366331,5.8265175 L20.5367051,5.8268775 Z M17.2517051,7.7168775 C17.2517051,7.7168775 16.9462523,8.9622615 17.3866331,8.9318775 C17.8270571,8.9014935 17.2517051,7.7168775 17.2517051,7.7168775 L17.2517051,7.7168775 Z M16.6667051,8.2568775 C16.6667051,8.2568775 16.1402123,8.5252071 16.2617051,8.6618775 C16.3832411,8.7985335 16.6357595,8.8733415 16.7117051,8.7518775 C16.7877371,8.6303415 16.6667771,8.2568775 16.6667771,8.2568775 L16.6667051,8.2568775 Z M24.9017051,19.9118775 C24.7271339,19.9497495 24.5206235,20.0901495 24.4067051,20.2268775 C24.2928011,20.3635335 24.1209515,20.8459191 24.1817051,21.1268775 C24.2423291,21.4078359 24.4955675,21.7872471 24.5867051,21.7568775 C24.6778571,21.7264935 24.9163355,21.6356295 24.9467051,21.1268775 C24.9770891,20.6181111 25.0601771,20.1607815 24.9916331,20.0468775 C24.9232331,19.9329735 24.9016331,19.9119495 24.9016331,19.9119495 L24.9017051,19.9118775 Z" id="path5753-1-5-3-9-8-2-7-5-8-copy-2" sketch:type="MSShapeGroup"></path>
        </g>
    </g>
</svg>