<?xml version="1.0" encoding="UTF-8" standalone="no"?>
<svg width="24px" height="24px" viewBox="0 0 24 24" version="1.1" xmlns="http://www.w3.org/2000/svg" xmlns:xlink="http://www.w3.org/1999/xlink" xmlns:sketch="http://www.bohemiancoding.com/sketch/ns">
    <!-- Generator: Sketch 3.5.2 (25235) - http://www.bohemiancoding.com/sketch -->
    <title>link</title>
    <desc>Created with Sketch.</desc>
    <defs></defs>
    <g id="Page-1" stroke="none" stroke-width="1" fill="none" fill-rule="evenodd" sketch:type="MSPage">
        <g id="link" sketch:type="MSArtboardGroup" fill="#555555">
            <path d="M17.5024077,1 C14.4012841,1 12.1861958,3.80577849 9.97110754,5.87319422 C10.2664526,5.87319422 10.7094703,5.72552167 11.152488,5.72552167 C11.8908507,5.72552167 12.6292135,5.87319422 13.3675762,6.16853933 C14.5489567,4.98715891 15.7303371,3.65810594 17.5024077,3.65810594 C18.388443,3.65810594 19.4221509,4.1011236 20.1605136,4.6918138 C21.6372392,6.16853933 21.6372392,8.53130016 20.1605136,10.0080257 L16.3210273,13.847512 C15.7303371,14.4382022 14.5489567,14.8812199 13.6629213,14.8812199 C11.5955056,14.8812199 10.5617978,13.5521669 9.82343499,11.9277689 L7.90369181,13.847512 C9.08507223,16.0626003 10.8571429,17.6869969 13.5152488,17.6869969 C15.2873194,17.6869969 16.9117175,16.9486342 17.9454254,15.7672552 L21.7849117,11.9277689 C23.1139647,10.5987159 24,8.97431782 24,7.05457464 C23.7046549,3.80577849 20.7512039,1 17.5024077,1 Z M11.152488,18.8683788 L9.82343499,20.1974318 C9.23274478,20.788122 8.05136437,21.2311396 7.16532905,21.2311396 C6.27929374,21.2311396 5.24558587,20.788122 4.50722311,20.1974318 C3.03049759,18.7207063 3.03049759,16.2102729 4.50722311,14.8812199 L8.34670947,11.0417335 C8.93739968,10.4510433 10.1187801,10.0080257 11.0048154,10.0080257 C13.0722311,10.0080257 14.105939,11.4847512 14.8443018,12.9614767 L16.7640449,11.0417335 C15.5826645,8.82664526 13.8105939,7.20224719 11.152488,7.20224719 C9.38041734,7.20224719 7.75601926,7.94060995 6.7223114,9.12199037 L2.88282504,12.9614767 C0.372391653,15.4719101 0.372391653,19.459069 2.88282504,21.8218299 C5.24558587,24.1845907 9.38041734,24.3322632 11.5955056,21.8218299 L14.4012841,19.0160514 C13.9582665,19.1637239 13.5152488,19.1637239 13.0722311,19.1637239 C12.3338684,19.1637239 11.7431782,19.1637239 11.152488,18.8683788 Z" id="Fill-1" sketch:type="MSShapeGroup"></path>
        </g>
    </g>
</svg>