<?xml version="1.0" encoding="UTF-8" standalone="no"?>
<svg width="30px" height="30px" viewBox="0 0 30 30" version="1.1" xmlns="http://www.w3.org/2000/svg" xmlns:xlink="http://www.w3.org/1999/xlink" xmlns:sketch="http://www.bohemiancoding.com/sketch/ns">
    <!-- Generator: Sketch 3.4.4 (17249) - http://www.bohemiancoding.com/sketch -->
    <title>linked</title>
    <desc>Created with Sketch.</desc>
    <defs></defs>
    <g id="Page-1" stroke="none" stroke-width="1" fill="none" fill-rule="evenodd" sketch:type="MSPage">
        <g id="linked" sketch:type="MSArtboardGroup" fill="#165CA0">
            <g id="link-blue" sketch:type="MSLayerGroup" transform="translate(1.000000, 2.000000)">
                <g id="Layer_1" sketch:type="MSShapeGroup">
                    <g id="g3" transform="translate(0.496790, 0.727300)">
                        <path d="M18.9406095,0.96308184 C15.5698231,0.96308184 13.1621185,4.012841 10.7544139,6.26003196 C11.0754412,6.26003196 11.5569821,6.09951832 12.038523,6.09951832 C12.8410912,6.09951832 13.6436594,6.26003196 14.4462276,6.58105924 C15.7303367,5.29695012 17.0144458,3.85232736 18.9406095,3.85232736 C19.9036914,3.85232736 21.0272868,4.33386828 21.829855,4.97592284 C23.4349914,6.58105924 23.4349914,9.14927748 21.829855,10.7544139 L17.6565004,14.9277685 C17.0144458,15.5698231 15.7303367,16.051364 14.7672549,16.051364 C12.5200639,16.051364 11.3964684,14.6067412 10.5939002,12.8410912 L8.50722292,14.9277685 C9.79133204,17.3354731 11.7174957,19.1011232 14.6067412,19.1011232 C16.5329049,19.1011232 18.298555,18.298555 19.4221504,17.0144458 L23.5955051,12.8410912 C25.0401278,11.3964684 26.0032097,9.6308184 26.0032097,7.54414108 C25.6821824,4.012841 22.4719096,0.96308184 18.9406095,0.96308184 L18.9406095,0.96308184 Z" id="path5"></path>
                        <path d="M12.038523,20.3852323 L10.5939002,21.829855 C9.95184568,22.4719096 8.66773656,22.9534505 7.70465472,22.9534505 C6.74157288,22.9534505 5.6179774,22.4719096 4.8154092,21.829855 C3.2102728,20.2247186 3.2102728,17.4959868 4.8154092,16.051364 L8.98876384,11.8780094 C9.6308184,11.2359548 10.9149275,10.7544139 11.8780094,10.7544139 C14.1252003,10.7544139 15.2487958,12.3595503 16.051364,13.9646867 L18.1380413,11.8780094 C16.8539322,9.47030476 14.9277685,7.70465472 12.038523,7.70465472 C10.1123593,7.70465472 8.34670928,8.50722292 7.2231138,9.79133204 L3.04975916,13.9646867 C0.32102728,16.6934186 0.32102728,21.0272868 3.04975916,23.5955051 C5.6179774,26.1637233 10.1123593,26.324237 12.5200639,23.5955051 L15.5698231,20.5457459 C15.0882822,20.7062596 14.6067412,20.7062596 14.1252003,20.7062596 C13.3226321,20.7062596 12.6805776,20.7062596 12.038523,20.3852323 L12.038523,20.3852323 Z" id="path7"></path>
                    </g>
                </g>
            </g>
        </g>
    </g>
</svg>