<?xml version="1.0" encoding="UTF-8" standalone="no"?>
<svg width="24px" height="24px" viewBox="0 0 24 24" version="1.1" xmlns="http://www.w3.org/2000/svg" xmlns:xlink="http://www.w3.org/1999/xlink" xmlns:sketch="http://www.bohemiancoding.com/sketch/ns">
    <!-- Generator: Sketch 3.4.4 (17249) - http://www.bohemiancoding.com/sketch -->
    <title>mark-unread</title>
    <desc>Created with Sketch.</desc>
    <defs></defs>
    <g id="Page-1" stroke="none" stroke-width="1" fill="none" fill-rule="evenodd" sketch:type="MSPage">
        <g id="mark-unread" sketch:type="MSArtboardGroup" fill="#555555">
            <path d="M19.6223071,4.62367058 C19.6223071,5.00163621 19.4963185,5.3736024 19.2503409,5.75156804 L17.4985001,7.50340878 L16.3706027,6.50149986 L19.1183529,3.75374966 C19.4963185,3.87973821 19.6223071,4.25170439 19.6223071,4.62367058 L19.6223071,4.62367058 L19.6223071,4.62367058 Z M18.9983638,11.2530679 L23,11.2530679 C23,11.6250341 22.8740115,12.0029997 22.5020453,12.3749659 C22.1300791,12.7469321 21.878102,12.8729206 21.5001364,12.8729206 L18.9983638,12.8729206 C18.9983638,12.8789201 18.9983638,11.2530679 18.9983638,11.2530679 L18.9983638,11.2530679 L18.9983638,11.2530679 Z M11.2470684,5.00163621 L11.2470684,1 C11.6190346,1 11.9970003,1.12598855 12.3749659,1.49795473 C12.7469321,1.87592037 12.8729206,2.12189801 12.8729206,2.49986365 L12.8729206,5.00163621 L11.2470684,5.00163621 L11.2470684,5.00163621 L11.2470684,5.00163621 L11.2470684,5.00163621 Z M19.2443414,19.6283065 C18.8723752,19.6283065 18.4944096,19.502318 18.2424325,19.2563403 L16.4965912,17.4985001 L17.4985001,16.4965912 L20.2462503,19.2443414 C19.9942732,19.502318 19.6223071,19.6283065 19.2443414,19.6283065 L19.2443414,19.6283065 L19.2443414,19.6283065 Z M4.74965912,4.37769294 C5.12162531,4.37769294 5.49959095,4.50368148 5.75156804,4.74965912 L7.50340878,6.50149986 L6.50149986,7.62939733 L3.75374966,4.75565858 C3.9997273,4.50368148 4.37169348,4.37769294 4.74965912,4.37769294 L4.74965912,4.37769294 L4.74965912,4.37769294 Z M11.2470684,18.9983638 L12.7469321,18.9983638 L12.7469321,22.9999988 C12.3749659,22.9999988 11.9970003,22.8740103 11.6190346,22.5020441 C11.2470684,22.1300791 11.1210799,21.878102 11.1210799,21.5001364 L11.2470684,18.9983638 L11.2470684,18.9983638 L11.2470684,18.9983638 L11.2470684,18.9983638 Z M2.49986365,11.2530679 L5.00163621,11.2530679 L5.00163621,12.7529316 L1,12.7529316 C1,12.3809654 1.12598855,12.0029997 1.49795473,11.6310335 C1.87592037,11.2530679 2.12189801,11.2530679 2.49986365,11.2530679 L2.49986365,11.2530679 L2.49986365,11.2530679 Z M4.74965912,18.248432 L6.50149986,16.4965912 L7.50340878,17.4985001 L4.75565858,20.2462503 C4.50368148,19.9942732 4.37769294,19.6223071 4.37769294,19.2443414 C4.37169348,18.8783747 4.49768203,18.5004091 4.74965912,18.248432 Z M15.530799,8.46920098 C17.4824636,10.4208656 17.4824636,13.5851339 15.530799,15.5367985 C13.5791344,17.488463 10.4148661,17.488463 8.46320153,15.5367985 C6.51153695,13.5851339 6.51153695,10.4208656 8.46320153,8.46920098 C10.4148661,6.51753641 13.5791344,6.51753641 15.530799,8.46920098 Z" id="Fill-1" sketch:type="MSShapeGroup"></path>
        </g>
    </g>
</svg>