<?xml version="1.0" encoding="UTF-8" standalone="no"?>
<svg width="24px" height="24px" viewBox="0 0 24 24" version="1.1" xmlns="http://www.w3.org/2000/svg" xmlns:xlink="http://www.w3.org/1999/xlink" xmlns:sketch="http://www.bohemiancoding.com/sketch/ns">
    <!-- Generator: Sketch 3.5.2 (25235) - http://www.bohemiancoding.com/sketch -->
    <title>mention</title>
    <desc>Created with Sketch.</desc>
    <defs></defs>
    <g id="Page-1" stroke="none" stroke-width="1" fill="none" fill-rule="evenodd" sketch:type="MSPage">
        <g id="mention" sketch:type="MSArtboardGroup" fill="#165CA0">
            <path d="M21.7142857,19 L24,21.2857143 L8,21.2857143 L8,8.71428571 L21.7142857,8.71428571 L21.7142857,19 Z M16,3 L16,7.57142857 L6.85714286,7.57142857 L6.85714286,15.5714286 L0,15.5714286 L2.28571429,13.2857143 L2.28571429,3 L16,3 Z M20.0129032,14.3935484 C20.0129032,14.8838734 19.9462372,15.3225787 19.8129032,15.7096774 C19.6795692,16.0967761 19.4924743,16.4236546 19.2516129,16.6903226 C19.0107515,16.9569906 18.7290339,17.1591391 18.4064516,17.2967742 C18.0838694,17.4344093 17.7376363,17.5032258 17.3677419,17.5032258 C17.0236542,17.5032258 16.7419366,17.4279577 16.5225806,17.2774194 C16.3032247,17.126881 16.1763443,16.926883 16.1419355,16.6774194 L16.0903226,16.6774194 C15.9698919,16.8752698 15.7806465,17.0623647 15.5225806,17.2387097 C15.2645148,17.4150546 14.9419374,17.5032258 14.5548387,17.5032258 C14.2623641,17.5032258 14.0021517,17.4494629 13.7741935,17.3419355 C13.5462354,17.2344081 13.352689,17.0838719 13.1935484,16.8903226 C13.0344078,16.6967732 12.9118284,16.466668 12.8258065,16.2 C12.7397845,15.933332 12.6967742,15.6408618 12.6967742,15.3225806 C12.6967742,14.9612885 12.7548381,14.6064534 12.8709677,14.2580645 C12.9870974,13.9096757 13.1548376,13.6000014 13.3741935,13.3290323 C13.5935495,13.0580632 13.8537619,12.8387105 14.1548387,12.6709677 C14.4559155,12.503225 14.795697,12.4193548 15.1741935,12.4193548 C15.5010769,12.4193548 15.7720419,12.4881714 15.9870968,12.6258065 C16.2021516,12.7634415 16.3397846,12.9268808 16.4,13.116129 L16.4129032,13.116129 L16.5032258,12.6774194 L17.8967742,12.6774194 L17.4967742,14.7032258 C17.4537632,14.9096785 17.4150539,15.1075259 17.3806452,15.2967742 C17.3462364,15.4860225 17.3290323,15.6451606 17.3290323,15.7741935 C17.3290323,15.8946243 17.3548385,16.0021501 17.4064516,16.0967742 C17.4580648,16.1913983 17.5569885,16.2387097 17.7032258,16.2387097 C17.9612916,16.2387097 18.1913968,16.0903241 18.3935484,15.7935484 C18.5956999,15.4967727 18.6967742,15.0473148 18.6967742,14.4451613 C18.6967742,13.9462341 18.6150546,13.5053783 18.4516129,13.1225806 C18.2881712,12.739783 18.058066,12.4193561 17.7612903,12.1612903 C17.4645146,11.9032245 17.11183,11.7075275 16.7032258,11.5741935 C16.2946216,11.4408595 15.8451637,11.3741935 15.3548387,11.3741935 C14.8301049,11.3741935 14.3505398,11.4666657 13.916129,11.6516129 C13.4817183,11.8365601 13.109679,12.090321 12.8,12.4129032 C12.490321,12.7354855 12.2494632,13.1204279 12.0774194,13.5677419 C11.9053755,14.015056 11.8193548,14.4967716 11.8193548,15.0129032 C11.8193548,15.5634436 11.9096765,16.0580623 12.0903226,16.4967742 C12.2709686,16.9354861 12.5268801,17.3096759 12.8580645,17.6193548 C13.189249,17.9290338 13.5806429,18.1677411 14.0322581,18.3354839 C14.4838732,18.5032266 14.9806425,18.5870968 15.5225806,18.5870968 C16.1419386,18.5870968 16.6946212,18.4903235 17.1806452,18.2967742 C17.6666691,18.1032248 18.1032239,17.8301093 18.4903226,17.4774194 L19.3032258,18.3806452 C18.8042986,18.8709702 18.2215087,19.2301064 17.5548387,19.4580645 C16.8881687,19.6860226 16.1634448,19.8 15.3806452,19.8 C14.6494587,19.8 13.9784977,19.6817216 13.3677419,19.4451613 C12.7569862,19.208601 12.2322603,18.879572 11.7935484,18.4580645 C11.3548365,18.036557 11.0129045,17.5311857 10.7677419,16.9419355 C10.5225794,16.3526852 10.4,15.7096809 10.4,15.0129032 C10.4,14.3247277 10.5311815,13.688175 10.7935484,13.1032258 C11.0559153,12.5182766 11.4107505,12.0107548 11.8580645,11.5806452 C12.3053786,11.1505355 12.8301045,10.8129045 13.4322581,10.5677419 C14.0344116,10.3225794 14.6795665,10.2 15.3677419,10.2 C15.9698955,10.2 16.5526854,10.2881712 17.116129,10.4645161 C17.6795727,10.6408611 18.1741914,10.9053746 18.6,11.2580645 C19.0258086,11.6107545 19.3677406,12.0473092 19.6258065,12.5677419 C19.8838723,13.0881746 20.0129032,13.6967707 20.0129032,14.3935484 Z M16.0258065,14.6774194 C16.0258065,14.5483865 16.0150539,14.4236565 15.9935484,14.3032258 C15.9720429,14.1827951 15.9354841,14.0752693 15.883871,13.9806452 C15.8322578,13.886021 15.7591403,13.810753 15.6645161,13.7548387 C15.569892,13.6989245 15.4494631,13.6709677 15.3032258,13.6709677 C15.1397841,13.6709677 14.993549,13.7204296 14.8645161,13.8193548 C14.7354832,13.9182801 14.6236564,14.047311 14.5290323,14.2064516 C14.4344081,14.3655922 14.3612906,14.544085 14.3096774,14.7419355 C14.2580643,14.9397859 14.2322581,15.1333324 14.2322581,15.3225806 C14.2322581,15.5376355 14.2817199,15.7419345 14.3806452,15.9354839 C14.4795704,16.1290332 14.6666653,16.2258065 14.9419355,16.2258065 C15.1311837,16.2258065 15.294623,16.1763446 15.4322581,16.0774194 C15.5698932,15.9784941 15.68172,15.8516137 15.7677419,15.6967742 C15.8537639,15.5419347 15.9182794,15.3741945 15.9612903,15.1935484 C16.0043013,15.0129023 16.0258065,14.840861 16.0258065,14.6774194 L16.0258065,14.6774194 Z" id="Shape-Copy-8" sketch:type="MSShapeGroup"></path>
        </g>
    </g>
</svg>