<?xml version="1.0" encoding="UTF-8" standalone="no"?>
<svg width="30px" height="30px" viewBox="0 0 30 30" version="1.1" xmlns="http://www.w3.org/2000/svg" xmlns:xlink="http://www.w3.org/1999/xlink" xmlns:sketch="http://www.bohemiancoding.com/sketch/ns">
    <!-- Generator: Sketch 3.5.1 (25234) - http://www.bohemiancoding.com/sketch -->
    <title>mention</title>
    <desc>Created with Sketch.</desc>
    <defs></defs>
    <g id="Page-1" stroke="none" stroke-width="1" fill="none" fill-rule="evenodd" sketch:type="MSPage">
        <g id="mention" sketch:type="MSArtboardGroup" fill="#165CA0">
            <path d="M27.1428571,23 L30,25.8571429 L10,25.8571429 L10,10.1428571 L27.1428571,10.1428571 L27.1428571,23 Z M20,3 L20,8.71428571 L8.57142857,8.71428571 L8.57142857,18.7142857 L0,18.7142857 L2.85714286,15.8571429 L2.85714286,3 L20,3 Z M25.016129,17.2419355 C25.016129,17.8548418 24.9327965,18.4032234 24.766129,18.8870968 C24.5994615,19.3709702 24.3655929,19.7795682 24.0645161,20.1129032 C23.7634394,20.4462382 23.4112923,20.6989239 23.0080645,20.8709677 C22.6048367,21.0430116 22.1720453,21.1290323 21.7096774,21.1290323 C21.2795677,21.1290323 20.9274207,21.0349472 20.6532258,20.8467742 C20.3790309,20.6586012 20.2204303,20.4086037 20.1774194,20.0967742 L20.1129032,20.0967742 C19.9623648,20.3440873 19.7258081,20.5779559 19.4032258,20.7983871 C19.0806435,21.0188183 18.6774218,21.1290323 18.1935484,21.1290323 C17.8279552,21.1290323 17.5026896,21.0618286 17.2177419,20.9274194 C16.9327943,20.7930101 16.6908612,20.6048399 16.4919355,20.3629032 C16.2930098,20.1209665 16.1397855,19.833335 16.0322581,19.5 C15.9247306,19.166665 15.8709677,18.8010773 15.8709677,18.4032258 C15.8709677,17.9516106 15.9435477,17.5080667 16.0887097,17.0725806 C16.2338717,16.6370946 16.443547,16.2500017 16.7177419,15.9112903 C16.9919369,15.572579 17.3172024,15.2983881 17.6935484,15.0887097 C18.0698944,14.8790312 18.4946213,14.7741935 18.9677419,14.7741935 C19.3763461,14.7741935 19.7150524,14.8602142 19.983871,15.0322581 C20.2526895,15.2043019 20.4247308,15.408601 20.5,15.6451613 L20.516129,15.6451613 L20.6290323,15.0967742 L22.3709677,15.0967742 L21.8709677,17.6290323 C21.817204,17.8870981 21.7688174,18.1344074 21.7258065,18.3709677 C21.6827955,18.6075281 21.6612903,18.8064508 21.6612903,18.9677419 C21.6612903,19.1182803 21.6935481,19.2526876 21.7580645,19.3709677 C21.822581,19.4892479 21.9462356,19.5483871 22.1290323,19.5483871 C22.4516145,19.5483871 22.739246,19.3629051 22.9919355,18.9919355 C23.2446249,18.6209659 23.3709677,18.0591435 23.3709677,17.3064516 C23.3709677,16.6827926 23.2688182,16.1317228 23.0645161,15.6532258 C22.860214,15.1747288 22.5725825,14.7741952 22.2016129,14.4516129 C21.8306433,14.1290306 21.3897875,13.8844094 20.8790323,13.7177419 C20.368277,13.5510744 19.8064547,13.4677419 19.1935484,13.4677419 C18.5376311,13.4677419 17.9381748,13.5833322 17.3951613,13.8145161 C16.8521478,14.0457001 16.3870987,14.3629012 16,14.766129 C15.6129013,15.1693569 15.311829,15.6505348 15.0967742,16.2096774 C14.8817194,16.76882 14.7741935,17.3709645 14.7741935,18.016129 C14.7741935,18.7043045 14.8870956,19.3225779 15.1129032,19.8709677 C15.3387108,20.4193576 15.6586001,20.8870948 16.0725806,21.2741935 C16.4865612,21.6612923 16.9758036,21.9596764 17.5403226,22.1693548 C18.1048415,22.3790333 18.7258031,22.483871 19.4032258,22.483871 C20.1774232,22.483871 20.8682765,22.3629044 21.4758065,22.1209677 C22.0833364,21.879031 22.6290298,21.5376366 23.1129032,21.0967742 L24.1290323,22.2258065 C23.5053732,22.8387127 22.7768859,23.287633 21.9435484,23.5725806 C21.1102109,23.8575283 20.204306,24 19.2258065,24 C18.3118234,24 17.4731221,23.852152 16.7096774,23.5564516 C15.9462327,23.2607512 15.2903253,22.849465 14.7419355,22.3225806 C14.1935456,21.7956963 13.7661306,21.1639822 13.4596774,20.4274194 C13.1532243,19.6908565 13,18.8871011 13,18.016129 C13,17.1559097 13.1639769,16.3602187 13.4919355,15.6290323 C13.8198941,14.8978458 14.2634381,14.2634435 14.8225806,13.7258065 C15.3817232,13.1881694 16.0376306,12.7661306 16.7903226,12.4596774 C17.5430145,12.1532243 18.3494581,12 19.2096774,12 C19.9623694,12 20.6908567,12.110214 21.3951613,12.3306452 C22.0994659,12.5510764 22.7177393,12.8817182 23.25,13.3225806 C23.7822607,13.7634431 24.2096758,14.3091365 24.5322581,14.9596774 C24.8548403,15.6102183 25.016129,16.3709634 25.016129,17.2419355 Z M20.0322581,17.5967742 C20.0322581,17.4354831 20.0188173,17.2795706 19.9919355,17.1290323 C19.9650536,16.9784939 19.9193552,16.8440866 19.8548387,16.7258065 C19.7903223,16.6075263 19.6989253,16.5134412 19.5806452,16.4435484 C19.462365,16.3736556 19.3118289,16.3387097 19.1290323,16.3387097 C18.9247302,16.3387097 18.7419363,16.400537 18.5806452,16.5241935 C18.419354,16.6478501 18.2795705,16.8091388 18.1612903,17.0080645 C18.0430102,17.2069902 17.9516132,17.4301063 17.8870968,17.6774194 C17.8225803,17.9247324 17.7903226,18.1666655 17.7903226,18.4032258 C17.7903226,18.6720444 17.8521499,18.9274181 17.9758065,19.1693548 C18.099463,19.4112915 18.3333316,19.5322581 18.6774194,19.5322581 C18.9139797,19.5322581 19.1182787,19.4704307 19.2903226,19.3467742 C19.4623665,19.2231177 19.60215,19.0645171 19.7096774,18.8709677 C19.8172048,18.6774184 19.8978492,18.4677431 19.9516129,18.2419355 C20.0053766,18.0161279 20.0322581,17.8010763 20.0322581,17.5967742 L20.0322581,17.5967742 Z" id="Shape-Copy-8" sketch:type="MSShapeGroup"></path>
        </g>
    </g>
</svg>