<?xml version="1.0" encoding="UTF-8" standalone="no"?>
<svg width="25px" height="15px" viewBox="0 0 25 15" version="1.1" xmlns="http://www.w3.org/2000/svg" xmlns:xlink="http://www.w3.org/1999/xlink" xmlns:sketch="http://www.bohemiancoding.com/sketch/ns">
    <!-- Generator: Sketch 3.5.1 (25234) - http://www.bohemiancoding.com/sketch -->
    <title>more</title>
    <desc>Created with Sketch.</desc>
    <defs></defs>
    <g id="Page-1" stroke="none" stroke-width="1" fill="none" fill-rule="evenodd" sketch:type="MSPage">
        <g id="more" sketch:type="MSArtboardGroup" fill="#777777">
            <g sketch:type="MSLayerGroup" transform="translate(4.000000, 6.000000)" id="Page-1">
                <g sketch:type="MSShapeGroup">
                    <g>
                        <g id="more">
                            <path d="M5.29411765,2.11764705 C5.29411765,2.75294118 5.08235295,3.17647059 4.65882353,3.6 C4.23529412,4.02352941 3.70588235,4.23529412 3.17647059,4.23529412 C2.54117647,4.23529412 2.11764705,4.02352941 1.69411765,3.6 C1.27058824,3.17647059 1.05882353,2.64705882 1.05882353,2.11764705 C1.05882353,1.5882353 1.27058824,1.05882353 1.69411765,0.635294121 C2.11764705,0.211764703 2.64705882,0 3.17647059,0 C3.70588235,0 4.23529412,0.211764703 4.65882353,0.635294121 C5.08235295,1.05882353 5.29411765,1.5882353 5.29411765,2.11764705 L5.29411765,2.11764705 Z M11.6470588,2.11764705 C11.6470588,2.75294118 11.4352941,3.17647059 11.0117647,3.6 C10.5882353,4.02352941 10.0588235,4.23529412 9.52941177,4.23529412 C8.89411765,4.23529412 8.47058823,4.02352941 8.04705882,3.6 C7.62352941,3.17647059 7.4117647,2.64705882 7.4117647,2.11764705 C7.4117647,1.5882353 7.62352941,1.05882353 8.04705882,0.635294121 C8.47058823,0.211764703 9,0 9.52941177,0 C10.0588235,0 10.5882353,0.211764703 11.0117647,0.635294121 C11.4352941,1.05882353 11.6470588,1.5882353 11.6470588,2.11764705 L11.6470588,2.11764705 Z M18,2.11764705 C18,2.75294118 17.7882353,3.17647059 17.3647059,3.6 C16.9411765,4.02352941 16.4117647,4.23529412 15.882353,4.23529412 C15.2470588,4.23529412 14.8235295,4.02352941 14.4,3.6 C13.9764705,3.17647059 13.7647059,2.64705882 13.7647059,2.11764705 C13.7647059,1.5882353 13.9764705,1.05882353 14.4,0.635294121 C14.8235295,0.211764703 15.3529412,0 15.882353,0 C16.4117647,0 16.9411765,0.211764703 17.3647059,0.635294121 C17.7882353,1.05882353 18,1.5882353 18,2.11764705 L18,2.11764705 Z" id="Shape"></path>
                        </g>
                    </g>
                </g>
            </g>
        </g>
    </g>
</svg>