<?xml version="1.0" encoding="UTF-8" standalone="no"?>
<svg width="24px" height="24px" viewBox="0 0 24 24" version="1.1" xmlns="http://www.w3.org/2000/svg" xmlns:xlink="http://www.w3.org/1999/xlink" xmlns:sketch="http://www.bohemiancoding.com/sketch/ns">
    <!-- Generator: Sketch 3.5.1 (25234) - http://www.bohemiancoding.com/sketch -->
    <title>mute</title>
    <desc>Created with Sketch.</desc>
    <defs></defs>
    <g id="Page-1" stroke="none" stroke-width="1" fill="none" fill-rule="evenodd" sketch:type="MSPage">
        <g id="mute" sketch:type="MSArtboardGroup">
            <g id="Fill-1-+-Fill-3-+-Rectangle-1-Copy-+-Rectangle-1" sketch:type="MSLayerGroup" transform="translate(1.000000, -1.000000)">
                <g id="Fill-1-+-Fill-3" transform="translate(2.288889, 2.325000)" fill="#555555" sketch:type="MSShapeGroup">
                    <path d="M15.5249999,11.4999999 L15.5249999,5.74999995 C15.5249999,2.29999998 12.8799999,0 9.19999992,0 C5.51999995,0 2.87499997,2.29999998 2.87499997,5.74999995 L2.87499997,11.4999999 C2.87499997,13.7999999 2.87499997,14.9499999 0.574999995,14.9499999 L0.574999995,16.0999999 L17.8249998,16.0999999 L17.8249998,14.9499999 C15.5249999,14.9499999 15.5249999,13.7999999 15.5249999,11.4999999" id="Fill-1"></path>
                    <path d="M9.19999992,18.3999998 L5.74999995,18.3999998 C5.74999995,19.5499998 7.58999993,20.6999998 9.19999992,20.6999998 C10.8099999,20.6999998 12.6499999,19.5499998 12.6499999,18.3999998 L9.19999992,18.3999998" id="Fill-3"></path>
                </g>
                <g id="Rectangle-1-Copy-+-Rectangle-1" sketch:type="MSShapeGroup">
                    <path d="M21.5001341,3.06739785 L23.1264676,4.63792982 L3.49481795,24.9670981 L1.86848449,23.3965661 L21.5001341,3.06739785 L21.5001341,3.06739785 L21.5001341,3.06739785 Z" id="Rectangle-1-Copy" fill="#FFFFFF"></path>
                    <path d="M20.3903434,1.9129224 L22.0166769,3.48345437 L2.38502729,23.8126226 L0.758693824,22.2420907 L20.3903434,1.9129224 L20.3903434,1.9129224 L20.3903434,1.9129224 Z" id="Rectangle-1" fill="#555555"></path>
                </g>
            </g>
        </g>
    </g>
</svg>