<?xml version="1.0" encoding="UTF-8" standalone="no"?>
<svg width="30px" height="30px" viewBox="0 0 30 30" version="1.1" xmlns="http://www.w3.org/2000/svg" xmlns:xlink="http://www.w3.org/1999/xlink" xmlns:sketch="http://www.bohemiancoding.com/sketch/ns">
    <!-- Generator: Sketch 3.5.1 (25234) - http://www.bohemiancoding.com/sketch -->
    <title>pagetriage-mark-as-reviewed</title>
    <desc>Created with Sketch.</desc>
    <defs></defs>
    <g id="Page-1" stroke="none" stroke-width="1" fill="none" fill-rule="evenodd" sketch:type="MSPage">
        <g id="pagetriage-mark-as-reviewed" sketch:type="MSArtboardGroup" fill="#165CA0">
            <path d="M28.4444444,14.4444444 L19.1111111,25.3333333 L12.8888889,19.1111111 L11.3333333,20.6666667 L19.1111111,28.4444444 L30,16 L28.4444444,14.4444444 Z M22.2222222,19.1111111 L22.2222222,2 L2,2 L2,22.2222222 C2,24.8666667 4.02222222,26.8888889 6.66666667,26.8888889 L14.4444444,26.8888889 L9.77777778,22.2222222 L5.11111111,22.2222222 L5.11111111,20.6666667 L9.15555556,20.6666667 L10.7111111,19.1111111 L5.11111111,19.1111111 L5.11111111,17.5555556 L19.1111111,17.5555556 L19.1111111,19.1111111 L16,19.1111111 L17.5555556,20.6666667 L20.6666667,20.6666667 L22.2222222,19.1111111 Z M5.11111111,5.11111111 L11.3333333,5.11111111 L11.3333333,6.66666667 L5.11111111,6.66666667 L5.11111111,5.11111111 L5.11111111,5.11111111 Z M5.11111111,8.22222222 L11.3333333,8.22222222 L11.3333333,9.77777778 L5.11111111,9.77777778 L5.11111111,8.22222222 L5.11111111,8.22222222 Z M5.11111111,11.3333333 L11.3333333,11.3333333 L11.3333333,12.8888889 L5.11111111,12.8888889 L5.11111111,11.3333333 L5.11111111,11.3333333 Z M19.1111111,16 L5.11111111,16 L5.11111111,14.4444444 L19.1111111,14.4444444 L19.1111111,16 L19.1111111,16 Z M12.8888889,12.8888889 L12.8888889,5.11111111 L19.1111111,5.11111111 L19.1111111,12.8888889 L12.8888889,12.8888889 L12.8888889,12.8888889 Z" id="reviewed-page" sketch:type="MSShapeGroup"></path>
        </g>
    </g>
</svg>