<?xml version="1.0" encoding="UTF-8" standalone="no"?>
<svg width="24px" height="24px" viewBox="0 0 24 24" version="1.1" xmlns="http://www.w3.org/2000/svg" xmlns:xlink="http://www.w3.org/1999/xlink" xmlns:sketch="http://www.bohemiancoding.com/sketch/ns">
    <!-- Generator: Sketch 3.5.1 (25234) - http://www.bohemiancoding.com/sketch -->
    <title>page</title>
    <desc>Created with Sketch.</desc>
    <defs></defs>
    <g id="Page-1" stroke="none" stroke-width="1" fill="none" fill-rule="evenodd" sketch:type="MSPage">
        <g id="page" sketch:type="MSArtboardGroup" fill="#333333">
            <path d="M12.5,10.5 L18.5,10.5 L18.5,3 L12.5,3 L12.5,10.5 L12.5,10.5 Z M5,13.5 L18.5,13.5 L18.5,12 L5,12 L5,13.5 L5,13.5 Z M5,16.5 L18.5,16.5 L18.5,15 L5,15 L5,16.5 L5,16.5 Z M5,19.5 L18.5,19.5 L18.5,18 L5,18 L5,19.5 L5,19.5 Z M11,6 L5,6 L5,7.5 L11,7.5 L11,6 L11,6 Z M11,9 L5,9 L5,10.5 L11,10.5 L11,9 L11,9 Z M11,3 L5,3 L5,4.5 L11,4.5 L11,3 L11,3 Z M2,0 L21.5,0 L21.5,24 L6.5,24 C3.95,24 2,22.05 2,19.5 L2,0 L2,0 Z" id="Page-1-Copy-3" sketch:type="MSShapeGroup"></path>
        </g>
    </g>
</svg>