<?xml version="1.0" encoding="UTF-8" standalone="no"?>
<svg width="24px" height="24px" viewBox="0 0 24 24" version="1.1" xmlns="http://www.w3.org/2000/svg" xmlns:xlink="http://www.w3.org/1999/xlink" xmlns:sketch="http://www.bohemiancoding.com/sketch/ns">
    <!-- Generator: Sketch 3.5.2 (25235) - http://www.bohemiancoding.com/sketch -->
    <title>pin</title>
    <desc>Created with Sketch.</desc>
    <defs></defs>
    <g id="Page-1" stroke="none" stroke-width="1" fill="none" fill-rule="evenodd" sketch:type="MSPage">
        <g id="pin" sketch:type="MSArtboardGroup" fill="#333333">
            <path d="M14.9531528,12.2450539 C14.3728758,11.7058405 14.4280762,8.35006198 14.4280762,8.35006198 C14.4280762,8.35006198 14.3845442,5.44037423 14.9805286,4.84416536 C15.3925119,4.43307968 16.1159509,4.326718 16.5373586,3.91293962 C16.6381104,3.81241212 16.7119353,3.70515287 16.7664625,3.57792275 C16.8223361,3.44396088 16.8423069,3.33019426 16.8528533,3.20767637 C16.8557704,3.17626152 16.8708047,3.1497833 16.8708047,3.11836845 C16.8708047,3.05778268 16.8548729,3.04723627 16.8528533,3.02816297 C16.8041603,2.45461767 16.3380987,2 15.7524362,2 L8.74737476,2 C8.1617123,2 7.69542626,2.45461767 7.64718203,3.02816297 C7.6290063,3.087178 7.63192339,3.09368536 7.63282096,3.10221225 C7.6290063,3.1497833 7.64426494,3.17626152 7.64718203,3.20767637 C7.65750405,3.32996987 7.67747492,3.44396088 7.71449956,3.54089811 C7.78765127,3.70515287 7.86170054,3.81241212 7.95280359,3.90351517 C8.38363574,4.32694239 9.10707472,4.43307968 9.51905796,4.84416536 C10.1152668,5.44037423 10.0715104,8.35006198 10.0715104,8.35006198 C10.0715104,8.35006198 10.1267108,11.7058405 9.54643376,12.2450539 C8.37712838,13.3317831 7.36242891,13.1248939 6.50435488,14.11132 C5.89670203,14.8100759 6.00800034,16.0554501 6.00800034,16.0554501 L11.7683608,16.0554501 L11.7683608,21.1314157 L12.199193,24.2147827 L12.30174,24.2147827 L12.7327965,21.1314157 L12.7327965,16.0554501 L18.492035,16.0554501 C18.492035,16.0554501 18.603109,14.8100759 17.9956805,14.11132 C17.1373821,13.1248939 16.1226826,13.3317831 14.9531528,12.2450539 Z" sketch:type="MSShapeGroup" transform="translate(12.250000, 13.107391) rotate(-330.000000) translate(-12.250000, -13.107391) "></path>
        </g>
    </g>
</svg>