<?xml version="1.0" encoding="UTF-8" standalone="no"?>
<svg width="24px" height="24px" viewBox="0 0 24 24" version="1.1" xmlns="http://www.w3.org/2000/svg" xmlns:xlink="http://www.w3.org/1999/xlink" xmlns:sketch="http://www.bohemiancoding.com/sketch/ns">
    <!-- Generator: Sketch 3.5.2 (25235) - http://www.bohemiancoding.com/sketch -->
    <title>thank</title>
    <desc>Created with Sketch.</desc>
    <defs></defs>
    <g id="Page-1" stroke="none" stroke-width="1" fill="none" fill-rule="evenodd" sketch:type="MSPage">
        <g id="thank" sketch:type="MSArtboardGroup" fill="#555555">
            <path d="M3.6,4 L3.6,17.2 L0,20.8 L20.4,20.8 C22.44,20.8 24,19.24 24,17.2 L24,4 L3.6,4 L3.6,4 Z M17.04,7 C17.88,7 18.48,7.72 18.48,8.44 C18.48,9.16 17.88,10 17.04,10 C16.2,10 15.6,9.28 15.6,8.56 C15.6,7.84 16.32,7 17.04,7 L17.04,7 Z M10.56,7 C11.4,7 12,7.72 12,8.44 C12,9.16 11.28,10 10.56,10 C9.84,10 9.12,9.28 9.12,8.56 C9.12,7.84 9.72,7 10.56,7 L10.56,7 Z M13.8,17.2 C7.68,17.2 6.6,11.2 6.6,11.2 C6.6,11.2 9,12.4 13.8,12.4 C18.6,12.4 21,11.2 21,11.2 C21,11.2 19.8,17.2 13.8,17.2 L13.8,17.2 Z" id="Fill-3" sketch:type="MSShapeGroup"></path>
        </g>
    </g>
</svg>