<?xml version="1.0" encoding="UTF-8" standalone="no"?>
<svg width="24px" height="24px" viewBox="0 0 24 24" version="1.1" xmlns="http://www.w3.org/2000/svg" xmlns:xlink="http://www.w3.org/1999/xlink" xmlns:sketch="http://www.bohemiancoding.com/sketch/ns">
    <!-- Generator: Sketch 3.5.2 (25235) - http://www.bohemiancoding.com/sketch -->
    <title>usertalk</title>
    <desc>Created with Sketch.</desc>
    <defs></defs>
    <g id="Page-1" stroke="none" stroke-width="1" fill="none" fill-rule="evenodd" sketch:type="MSPage">
        <g id="usertalk" sketch:type="MSArtboardGroup" fill="#165CA0">
            <path d="M21.7142857,8.71428571 L21.7142857,19 L24,21.2857143 L8,21.2857143 L8,8.71428571 L21.7142857,8.71428571 L21.7142857,8.71428571 Z M2.28571429,3 L16,3 L16,7.57142857 L6.85714286,7.57142857 L6.85714286,15.5714286 L0,15.5714286 L2.28571429,13.2857143 L2.28571429,3 Z M16.6909091,17.1090909 C16.2981818,16.9781818 16.2981818,16.6290909 16.2545455,16.2363636 L16.2545455,16.1927273 C16.8654545,15.6690909 17.3454545,14.7963636 17.3454545,13.8363636 C17.3454545,11.7854545 16.4727273,11 15.1636364,11 C14.2472727,11 12.9818182,11.5236364 12.9818182,13.8363636 C12.9818182,14.7527273 13.4618182,15.6254545 14.0727273,16.1927273 L14.0727273,16.2363636 C14.0727273,16.6290909 14.0290909,16.9781818 13.6363636,17.1090909 C13.6363636,17.1090909 12.3709091,17.5890909 11.8909091,17.7636364 C11.3236364,17.9381818 10.8,18.2 10.8,18.8545455 L10.8,19.2909091 L19.5272727,19.2909091 L19.5272727,18.8545455 C19.5272727,18.3309091 19.1781818,17.9818182 18.4363636,17.7636364 C17.9127273,17.5890909 16.6909091,17.1090909 16.6909091,17.1090909 Z" id="Shape-Copy-15" sketch:type="MSShapeGroup"></path>
        </g>
    </g>
</svg>