<?xml version="1.0" encoding="UTF-8" standalone="no"?>
<svg width="30px" height="30px" viewBox="0 0 30 30" version="1.1" xmlns="http://www.w3.org/2000/svg" xmlns:xlink="http://www.w3.org/1999/xlink" xmlns:sketch="http://www.bohemiancoding.com/sketch/ns">
    <!-- Generator: Sketch 3.4.4 (17249) - http://www.bohemiancoding.com/sketch -->
    <title>user-rights</title>
    <desc>Created with Sketch.</desc>
    <defs></defs>
    <g id="Page-1" stroke="none" stroke-width="1" fill="none" fill-rule="evenodd" sketch:type="MSPage">
        <g id="user-rights" sketch:type="MSArtboardGroup" fill="#165CA0">
            <path d="M14.0855263,16.5621053 L14.0855263,16.4574211 C15.5511053,15.2012105 16.7026316,13.1075263 16.7026316,10.8044737 C16.7026316,5.88431579 14.6089474,4 11.4684211,4 C9.27005263,4 6.23421053,5.25621053 6.23421053,10.8044737 C6.23421053,13.0028421 7.38573684,15.0965263 8.85131579,16.4574211 L8.85131579,16.5621053 C8.85131579,17.5042632 8.74663158,18.3417368 7.80447368,18.6557895 C7.80447368,18.6557895 4.76863158,19.8073158 3.61710526,20.2260526 C2.25621053,20.6447895 1,21.2728947 1,22.8431579 L1,23.89 L15.9557864,23.89 L15.9032043,23.8374179 L16.3579497,23.1552998 L17,22 L15.835601,21.9763939 L15,21.8371271 L15,20.99 L15,18.6056742 C14.189957,18.2590608 14.1850591,17.4579005 14.0855263,16.5621053 Z M29.6,21.075 L29.6,18.61 L28.07,18.355 C27.985,18.015 27.815,17.675 27.56,17.165 L28.495,15.89 L26.71,14.105 L25.435,15.04 C25.01,14.785 24.585,14.615 24.245,14.53 L24.075,13 L21.61,13 L21.355,14.53 C20.93,14.615 20.59,14.785 20.165,15.04 L18.89,14.105 L17.105,15.89 L17.955,17.165 C17.7,17.59 17.615,17.93 17.445,18.355 L16,18.525 L16,20.99 L17.53,21.245 C17.615,21.67 17.785,22.01 18.04,22.435 L17.19,23.71 L18.975,25.495 L20.25,24.645 C20.59,24.815 21.015,24.985 21.44,25.155 L21.695,26.685 L24.245,26.685 L24.5,25.155 C24.925,25.07 25.265,24.9 25.69,24.645 L26.965,25.58 L28.75,23.795 L27.815,22.52 C28.07,22.095 28.24,21.67 28.325,21.33 L29.6,21.075 Z M22.8,22.35 C21.355,22.35 20.25,21.245 20.25,19.8 C20.25,18.355 21.355,17.25 22.8,17.25 C24.245,17.25 25.35,18.355 25.35,19.8 C25.35,21.245 24.245,22.35 22.8,22.35 L22.8,22.35 Z" id="Shape-Copy-16" sketch:type="MSShapeGroup"></path>
        </g>
    </g>
</svg>