<?xml version="1.0" encoding="UTF-8" standalone="no"?>
<svg width="30px" height="30px" viewBox="0 0 30 30" version="1.1" xmlns="http://www.w3.org/2000/svg" xmlns:xlink="http://www.w3.org/1999/xlink" xmlns:sketch="http://www.bohemiancoding.com/sketch/ns">
    <!-- Generator: Sketch 3.5.1 (25234) - http://www.bohemiancoding.com/sketch -->
    <title>user-rights-source</title>
    <desc>Created with Sketch.</desc>
    <defs>
        <path id="path-1" d="M15.1323684,18.6557895 C14.1902105,18.3417368 14.1902105,17.5042632 14.0855263,16.5621053 L14.0855263,16.4574211 C15.5511053,15.2012105 16.7026316,13.1075263 16.7026316,10.8044737 C16.7026316,5.88431579 14.6089474,4 11.4684211,4 C9.27005263,4 6.23421053,5.25621053 6.23421053,10.8044737 C6.23421053,13.0028421 7.38573684,15.0965263 8.85131579,16.4574211 L8.85131579,16.5621053 C8.85131579,17.5042632 8.74663158,18.3417368 7.80447368,18.6557895 C7.80447368,18.6557895 4.76863158,19.8073158 3.61710526,20.2260526 C2.25621053,20.6447895 1,21.2728947 1,22.8431579 L1,23.89 L21.9368421,23.89 L21.9368421,22.8431579 C21.9368421,21.5869474 21.0993684,20.7494737 19.3197368,20.2260526 C18.0635263,19.8073158 15.1323684,18.6557895 15.1323684,18.6557895 Z"></path>
    </defs>
    <g id="Page-1" stroke="none" stroke-width="1" fill="none" fill-rule="evenodd" sketch:type="MSPage">
        <g id="user-rights-source" sketch:type="MSArtboardGroup">
            <g id="Shape-Copy-16">
                <use fill="none" sketch:type="MSShapeGroup" xlink:href="#path-1"></use>
                <use fill="#165CA0" fill-rule="evenodd" xlink:href="#path-1"></use>
            </g>
            <path d="M29.2,21.275 L29.2,18.81 L27.67,18.555 C27.585,18.215 27.415,17.875 27.16,17.365 L28.095,16.09 L26.31,14.305 L25.035,15.24 C24.61,14.985 24.185,14.815 23.845,14.73 L23.675,13.2 L21.21,13.2 L20.955,14.73 C20.53,14.815 20.19,14.985 19.765,15.24 L18.49,14.305 L16.705,16.09 L17.555,17.365 C17.3,17.79 17.215,18.13 17.045,18.555 L15.6,18.725 L15.6,21.19 L17.13,21.445 C17.215,21.87 17.385,22.21 17.64,22.635 L16.79,23.91 L18.575,25.695 L19.85,24.845 C20.19,25.015 20.615,25.185 21.04,25.355 L21.295,26.885 L23.845,26.885 L24.1,25.355 C24.525,25.27 24.865,25.1 25.29,24.845 L26.565,25.78 L28.35,23.995 L27.415,22.72 C27.67,22.295 27.84,21.87 27.925,21.53 L29.2,21.275 L29.2,21.275 Z M22.4,22.55 C20.955,22.55 19.85,21.445 19.85,20 C19.85,18.555 20.955,17.45 22.4,17.45 C23.845,17.45 24.95,18.555 24.95,20 C24.95,21.445 23.845,22.55 22.4,22.55 L22.4,22.55 Z" id="Page-1" stroke="#FFFFFF" fill="#165CA0" sketch:type="MSShapeGroup"></path>
        </g>
    </g>
</svg>