<?xml version="1.0" encoding="UTF-8" standalone="no"?>
<svg width="24px" height="24px" viewBox="0 0 24 24" version="1.1" xmlns="http://www.w3.org/2000/svg" xmlns:xlink="http://www.w3.org/1999/xlink" xmlns:sketch="http://www.bohemiancoding.com/sketch/ns">
    <!-- Generator: Sketch 3.5.2 (25235) - http://www.bohemiancoding.com/sketch -->
    <title>user</title>
    <desc>Created with Sketch.</desc>
    <defs></defs>
    <g id="Page-1" stroke="none" stroke-width="1" fill="none" fill-rule="evenodd" sketch:type="MSPage">
        <g id="user" sketch:type="MSArtboardGroup" fill="#555555">
            <path d="M16.1875,16.75 C15.175,16.4125 15.175,15.5125 15.0625,14.5 L15.0625,14.3875 C16.6375,13.0375 17.875,10.7875 17.875,8.3125 C17.875,3.025 15.625,1 12.25,1 C9.8875,1 6.625,2.35 6.625,8.3125 C6.625,10.675 7.8625,12.925 9.4375,14.3875 L9.4375,14.5 C9.4375,15.5125 9.325,16.4125 8.3125,16.75 C8.3125,16.75 5.05,17.9875 3.8125,18.4375 C2.35,18.8875 1,19.5625 1,21.25 L1,22.375 L23.5,22.375 L23.5,21.25 C23.5,19.8999989 22.6,19 20.6875,18.4375 C19.3375,17.9875 16.1875,16.75 16.1875,16.75 Z" id="Page-1-Copy-5" sketch:type="MSShapeGroup"></path>
        </g>
    </g>
</svg>