<?xml version="1.0" encoding="UTF-8"?>
<svg width="163px" height="59px" viewBox="0 0 163 59" version="1.1" xmlns="http://www.w3.org/2000/svg" xmlns:xlink="http://www.w3.org/1999/xlink">
    <!-- Generator: Sketch 50.2 (55047) - http://www.bohemiancoding.com/sketch -->
    <title>app-logo</title>
    <desc>Created with Sketch.</desc>
    <defs></defs>
    <g id="app-logo" stroke="none" stroke-width="1" fill="none" fill-rule="evenodd">
        <path d="M44.5123153,21.8372094 C43.3743843,21.9767443 42.5615765,22.5348838 41.9113302,23.3720932 C41.7487686,23.651163 41.5862071,23.9302328 41.4236455,24.3488375 L33.9458134,38.4418604 C33.7832518,38.7209302 33.6206902,38.8604651 33.6206902,38.8604651 C33.6206902,38.8604651 33.4581286,39 33.2955671,39 C32.9704439,39 32.6453208,38.8604651 32.4827592,38.4418604 L28.2561585,30.7674426 L23.7044329,38.4418604 C23.5418714,38.8604651 23.2167482,39 22.8916251,39 C22.5665019,39 22.2413788,38.8604651 22.0788172,38.4418604 L15.0886698,24.3488375 C14.6009851,23.2325583 14.1133004,22.6744187 13.7881773,22.3953489 C13.4630541,22.1162792 12.9753694,21.9767443 12.1625616,21.8372094 C12,21.6976745 12,21.5581396 12,21.4186047 C12,21.1395349 12,21 12.1625616,21 L15.5763545,21 L19.152709,21 C19.3152706,21.1395349 19.3152706,21.2790698 19.3152706,21.4186047 C19.3152706,21.6976745 19.3152706,21.8372094 19.152709,21.8372094 C18.1773412,21.9767443 17.5270933,22.1162792 17.3645318,22.3953489 C17.2019702,22.6744187 17.3645318,23.2325583 17.8522165,24.0697677 L23.7044329,35.5116276 L23.8669945,35.5116276 L27.4433506,29.3720937 L24.679804,24.3488375 C24.1921176,23.3720932 23.7044329,22.6744187 23.3793098,22.3953489 C23.0541883,22.1162792 22.5665019,21.9767443 21.9162557,21.8372094 C21.7536941,21.6976745 21.7536941,21.5581396 21.7536941,21.4186047 C21.7536941,21.1395349 21.7536941,21 21.9162557,21 L24.8423655,21 L27.7684738,21 C27.9310353,21.1395349 27.9310353,21.2790698 27.9310353,21.4186047 C27.9310353,21.6976745 27.9310353,21.8372094 27.7684738,21.8372094 C27.1182275,21.9767443 26.7931043,22.1162792 26.7931043,22.3953489 C26.7931043,22.6744187 26.9556659,23.2325583 27.4433506,24.0697677 L29.0689663,26.7209307 L30.694582,24.0697677 C31.1822667,23.2325583 31.5073898,22.8139536 31.5073898,22.5348838 C31.5073898,22.2558141 31.5073898,22.1162792 31.3448283,21.9767443 C31.1822667,21.8372094 30.8571436,21.8372094 30.5320204,21.8372094 C30.5320204,21.6976745 30.3694588,21.5581396 30.3694588,21.4186047 C30.3694588,21.1395349 30.3694588,21 30.5320204,21 L32.9704439,21 L35.4088675,21 C35.571429,21.1395349 35.571429,21.2790698 35.571429,21.4186047 C35.571429,21.6976745 35.571429,21.8372094 35.4088675,21.8372094 C34.5960596,21.9767443 34.1083749,22.1162792 33.6206902,22.5348838 C33.1330055,22.9534885 32.6453208,23.5116281 32.3201977,24.3488375 L30.2068973,28.2558145 L34.2709365,35.5116262 L34.4334981,35.5116262 L40.4482761,24.2093026 C40.9359608,23.5116281 40.9359608,22.9534885 40.7733992,22.5348838 C40.6108377,22.1162792 39.9605914,21.9767443 38.985222,21.8372094 C38.8226604,21.6976745 38.8226604,21.5581396 38.8226604,21.4186047 C38.8226604,21.2790698 38.8226604,21 38.985222,21 L42.0738918,21 L45,21 C44.6748769,21.1394372 44.6748769,21.2789303 44.6748769,21.4186047 C44.6748769,21.6976745 44.6748769,21.8372094 44.5123153,21.8372094 Z" id="logo" fill="#54595D"></path>
        <text id="Translate-page" font-family="Lato-Bold, Lato" font-size="18" font-weight="bold" fill="#54595D">
            <tspan x="54" y="37">Translations</tspan>
        </text>
    </g>
</svg>