<?xml version="1.0" encoding="UTF-8"?>
<svg width="155px" height="59px" viewBox="0 0 155 59" version="1.1" xmlns="http://www.w3.org/2000/svg" xmlns:xlink="http://www.w3.org/1999/xlink">
    <!-- Generator: Sketch 50.2 (55047) - http://www.bohemiancoding.com/sketch -->
    <title>personal-toolbar</title>
    <desc>Created with Sketch.</desc>
    <defs>
        <path d="M2.00710776,4.81482486e-35 C0.898612752,-2.15934855e-19 0,0.900345519 0,2.00746124 L0,32.9925388 C0,34.101229 0.890587807,35 2.00710776,35 L60.9928922,35 C62.1013872,35 63,34.0996545 63,32.9925388 L63,2.00746124 C63,0.89877101 62.1094122,1.17079304e-17 60.9928922,1.14904323e-17 L2.00710776,4.81482486e-35 Z" id="path-1"></path>
    </defs>
    <g id="personal-toolbar" stroke="none" stroke-width="1" fill="none" fill-rule="evenodd">
        <g id="Group-8" transform="translate(12.000000, 12.000000)">
            <g id="Group-12" transform="translate(68.000000, 0.000000)">
                <g id="BG" fill="#F8F9FA">
                    <use xlink:href="#path-1"></use>
                    <path stroke="#3366CC" stroke-width="1" d="M2.00710776,0.5 C1.17537889,0.5 0.5,1.1758638 0.5,2.00746124 L0.5,32.9925388 C0.5,33.8281951 1.16983157,34.5 2.00710776,34.5 L60.9928922,34.5 C61.8246211,34.5 62.5,33.8241362 62.5,32.9925388 L62.5,2.00746124 C62.5,1.17180491 61.8301684,0.5 60.9928922,0.5 L2.00710776,0.5 Z" stroke-linejoin="square"></path>
                </g>
                <path d="M26.8,21.2 C26.08,20.96 26.08,20.32 26,19.6 L26,19.52 C27.12,18.56 28,16.96 28,15.2 C28,11.44 26.4,10 24,10 C22.32,10 20,10.96 20,15.2 C20,16.88 20.88,18.48 22,19.52 L22,19.6 C22,20.32 21.92,20.96 21.2,21.2 C21.2,21.2 18.88,22.08 18,22.4 C16.96,22.72 16,23.2 16,24.4 L16,25.2 L32,25.2 L32,24.4 C32,23.4399992 31.36,22.8 30,22.4 C29.04,22.08 26.8,21.2 26.8,21.2 Z" id="Page-1" fill="#3366CC"></path>
                <path d="M47,16.8707865 C46.505618,16.3764045 45.7640449,16.3764045 45.2696629,16.8707865 L41.5,20.6404501 L37.7303371,16.9325843 C37.2359551,16.4382022 36.494382,16.4382022 36,16.9325843 L41.5,22.3707865 L47,16.8707865 Z" id="Page-1" fill="#3366CC"></path>
            </g>
            <g id="Group-15" transform="translate(0.000000, 6.000000)">
                <rect id="Rectangle-Copy" x="0" y="0" width="24" height="24"></rect>
                <path d="M17.7222222,13.5555556 C17.7222222,15.6666667 17.7222222,16.7222222 19.8333333,16.7222222 L19.8333333,17.7777778 L4,17.7777778 L4,16.7222222 C6.11111111,16.7222222 6.11111111,15.6666667 6.11111111,13.5555556 L6.11111111,8.27777778 C6.11111111,5.11111111 8.53888889,3 11.9166667,3 C15.2944444,3 17.7222222,5.11111111 17.7222222,8.27777778 L17.7222222,13.5555556 Z M11.9166667,19.8888889 L15.0833333,19.8888889 C15.0833333,20.9444444 13.3944444,22 11.9166667,22 C10.4388889,22 8.75,20.9444444 8.75,19.8888889 L11.9166667,19.8888889 Z" id="Shape-Copy-20" fill="#54595D"></path>
            </g>
            <g id="Group-13" transform="translate(32.000000, 6.000000)">
                <rect id="Rectangle" x="0" y="0" width="24" height="24"></rect>
                <g id="Group-14" transform="translate(2.000000, 4.000000)" fill="#54595D">
                    <path d="M17.6129032,11.7351443 L1.95698925,11.7351443 L3.91397849,1.95585739 L15.655914,1.95585739 L17.6129032,11.7351443 Z M3.91397849,0 C2.83763441,0 1.95698925,0.880135823 1.95698925,1.95585739 L-1.24344979e-14,9.77928693 C-1.24344979e-14,10.8550085 0.880645161,11.7351443 1.95698925,11.7351443 L17.6129032,11.7351443 C18.6892473,11.7351443 19.5698925,10.8550085 19.5698925,9.77928693 L17.6129032,1.95585739 C17.6129032,0.880135823 16.7322581,0 15.655914,0 L3.91397849,0 Z" id="Shape"></path>
                    <path d="M9.78494624,12.713073 C8.12150538,12.713073 6.84946237,11.4417657 6.84946237,9.77928693 L-1.24344979e-14,9.77928693 L-1.24344979e-14,14.6689304 C-1.24344979e-14,15.744652 0.880645161,16.6247878 1.95698925,16.6247878 L17.6129032,16.6247878 C18.6892473,16.6247878 19.5698925,15.744652 19.5698925,14.6689304 L19.5698925,9.77928693 L12.7204301,9.77928693 C12.7204301,11.4417657 11.4483871,12.713073 9.78494624,12.713073 Z" id="Shape"></path>
                </g>
            </g>
        </g>
    </g>
</svg>