<?xml version="1.0" encoding="UTF-8" standalone="no"?>
<svg
   xmlns:dc="http://purl.org/dc/elements/1.1/"
   xmlns:cc="http://creativecommons.org/ns#"
   xmlns:rdf="http://www.w3.org/1999/02/22-rdf-syntax-ns#"
   xmlns:svg="http://www.w3.org/2000/svg"
   xmlns="http://www.w3.org/2000/svg"
   xmlns:sodipodi="http://sodipodi.sourceforge.net/DTD/sodipodi-0.dtd"
   xmlns:inkscape="http://www.inkscape.org/namespaces/inkscape"
   width="16"
   height="16"
   viewBox="0 0 16 16"
   version="1.1"
   id="svg2"
   inkscape:version="0.91 r13725"
   sodipodi:docname="add-tag.svg">
  <metadata
     id="metadata16">
    <rdf:RDF>
      <cc:Work
         rdf:about="">
        <dc:format>image/svg+xml</dc:format>
        <dc:type
           rdf:resource="http://purl.org/dc/dcmitype/StillImage" />
        <dc:title>add-tag</dc:title>
      </cc:Work>
    </rdf:RDF>
  </metadata>
  <sodipodi:namedview
     pagecolor="#ffffff"
     bordercolor="#666666"
     borderopacity="1"
     objecttolerance="10"
     gridtolerance="10"
     guidetolerance="10"
     inkscape:pageopacity="0"
     inkscape:pageshadow="2"
     inkscape:window-width="1014"
     inkscape:window-height="564"
     id="namedview14"
     showgrid="false"
     inkscape:zoom="9.8333333"
     inkscape:cx="-2.8474577"
     inkscape:cy="12"
     inkscape:window-x="0"
     inkscape:window-y="0"
     inkscape:window-maximized="0"
     inkscape:current-layer="svg2" />
  <!-- Generator: Sketch 42 (36781) - http://www.bohemiancoding.com/sketch -->
  <title
     id="title4">add-tag</title>
  <desc
     id="desc6">Created with Sketch.</desc>
  <defs
     id="defs8" />
  <path
     style="fill:#222222;fill-rule:evenodd;stroke:none;stroke-width:1"
     d="M 15.587976,9.5880737 C 15.63982,9.5348156 15.677669,9.4871648 15.704296,9.436718 15.897695,9.1634353 16,8.8467095 16,8.5103628 L 16,3.4175139 C 16,2.9844676 15.829023,2.5738443 15.522107,2.2669279 15.21519,1.9628145 14.805968,1.7904369 14.372923,1.7904369 l -5.0942506,0 c -0.3615727,0 -0.7021226,0.1177216 -0.989419,0.3405509 -0.014014,0.00841 -0.1891951,0.163969 -0.2508589,0.2382456 L 1.9701402,8.424875 c -0.4302433,0.4288416 -0.4302433,1.1267607 0,1.5542016 l 5.8370155,5.8398184 c 0.430244,0.430244 1.1267622,0.430244 1.5556033,0 L 15.587976,9.5880737 Z M 13.272789,4.5190493 c 0.81424,0.8142389 0.812838,2.127393 0,2.9374269 -0.810035,0.8128377 -2.125991,0.8128377 -2.938828,0 -0.8100357,-0.8100339 -0.8114363,-2.1273924 0,-2.9374269 0.811435,-0.8114364 2.130196,-0.8114364 2.938828,0 l 0,0 z"
     id="Page-1"
     inkscape:connector-curvature="0" />
  <polygon
     style="fill:#222222;fill-rule:evenodd;stroke:none;stroke-width:1"
     id="Page-1-Copy-2"
     points="4.0377357,7 4.037736,10.037736 1,10.037736 1,10.962264 4.037736,10.962264 4.037736,14 4.9622643,14 4.9622643,10.962264 8,10.962264 8,10.037736 4.9622643,10.037736 4.962264,7 "
     transform="matrix(0.71428571,0,0,0.71428571,-0.71428571,-4.9999999)" />
</svg>
