<?xml version="1.0" encoding="UTF-8" standalone="no"?>
<svg
   xmlns:dc="http://purl.org/dc/elements/1.1/"
   xmlns:cc="http://creativecommons.org/ns#"
   xmlns:rdf="http://www.w3.org/1999/02/22-rdf-syntax-ns#"
   xmlns:svg="http://www.w3.org/2000/svg"
   xmlns="http://www.w3.org/2000/svg"
   xmlns:sodipodi="http://sodipodi.sourceforge.net/DTD/sodipodi-0.dtd"
   xmlns:inkscape="http://www.inkscape.org/namespaces/inkscape"
   width="16"
   height="16"
   viewBox="0 0 16 16"
   version="1.1"
   id="svg2"
   inkscape:version="0.91 r13725"
   sodipodi:docname="add-namespace.svg">
  <metadata
     id="metadata15">
    <rdf:RDF>
      <cc:Work
         rdf:about="">
        <dc:format>image/svg+xml</dc:format>
        <dc:type
           rdf:resource="http://purl.org/dc/dcmitype/StillImage" />
        <dc:title>add-namespace</dc:title>
      </cc:Work>
    </rdf:RDF>
  </metadata>
  <sodipodi:namedview
     pagecolor="#ffffff"
     bordercolor="#666666"
     borderopacity="1"
     objecttolerance="10"
     gridtolerance="10"
     guidetolerance="10"
     inkscape:pageopacity="0"
     inkscape:pageshadow="2"
     inkscape:window-width="1172"
     inkscape:window-height="682"
     id="namedview13"
     showgrid="false"
     inkscape:zoom="11.8"
     inkscape:cx="-2.3728814"
     inkscape:cy="10"
     inkscape:window-x="0"
     inkscape:window-y="0"
     inkscape:window-maximized="0"
     inkscape:current-layer="svg2" />
  <!-- Generator: Sketch 42 (36781) - http://www.bohemiancoding.com/sketch -->
  <title
     id="title4">add-namespace</title>
  <desc
     id="desc6">Created with Sketch.</desc>
  <defs
     id="defs8" />
  <g
     id="Extended-options"
     style="fill:none;fill-rule:evenodd;stroke:none;stroke-width:1"
     transform="translate(-4.5,-4)">
    <g
       id="add-namespace"
       style="fill:#222222">
      <path
         d="m 13,11 4,0 0,-5 -4,0 0,5 z m -5,2 9,0 0,-1 -9,0 0,1 z m 0,2 9,0 0,-1 -9,0 0,1 z m 0,2 9,0 0,-1 -9,0 0,1 z m 4,-9 -4,0 0,1 4,0 0,-1 z m 0,2 -4,0 0,1 4,0 0,-1 z M 12,6 8,6 8,7 12,7 12,6 Z M 19,4 19,20 9,20 C 7.3,20 6,18.7 6,17 L 6,4 19,4 Z"
         id="Page-1"
         inkscape:connector-curvature="0" />
    </g>
  </g>
</svg>
