<?xml version="1.0" encoding="UTF-8" standalone="no"?>
<svg
   xmlns:dc="http://purl.org/dc/elements/1.1/"
   xmlns:cc="http://creativecommons.org/ns#"
   xmlns:rdf="http://www.w3.org/1999/02/22-rdf-syntax-ns#"
   xmlns:svg="http://www.w3.org/2000/svg"
   xmlns="http://www.w3.org/2000/svg"
   xmlns:sodipodi="http://sodipodi.sourceforge.net/DTD/sodipodi-0.dtd"
   xmlns:inkscape="http://www.inkscape.org/namespaces/inkscape"
   width="16"
   height="16"
   viewBox="0 0 16 16"
   version="1.1"
   id="svg2"
   inkscape:version="0.91 r13725"
   sodipodi:docname="add-user.svg">
  <metadata
     id="metadata16">
    <rdf:RDF>
      <cc:Work
         rdf:about="">
        <dc:format>image/svg+xml</dc:format>
        <dc:type
           rdf:resource="http://purl.org/dc/dcmitype/StillImage" />
        <dc:title>add-user</dc:title>
      </cc:Work>
    </rdf:RDF>
  </metadata>
  <sodipodi:namedview
     pagecolor="#ffffff"
     bordercolor="#666666"
     borderopacity="1"
     objecttolerance="10"
     gridtolerance="10"
     guidetolerance="10"
     inkscape:pageopacity="0"
     inkscape:pageshadow="2"
     inkscape:window-width="1228"
     inkscape:window-height="711"
     id="namedview14"
     showgrid="false"
     inkscape:zoom="9.8333333"
     inkscape:cx="-2.8474577"
     inkscape:cy="12"
     inkscape:window-x="205"
     inkscape:window-y="99"
     inkscape:window-maximized="0"
     inkscape:current-layer="svg2" />
  <!-- Generator: Sketch 42 (36781) - http://www.bohemiancoding.com/sketch -->
  <title
     id="title4">add-user</title>
  <desc
     id="desc6">Created with Sketch.</desc>
  <defs
     id="defs8" />
  <path
     style="fill:#222222;fill-rule:evenodd;stroke:none;stroke-width:1"
     d="m 11.145932,11.766101 c -0.672101,-0.224033 -0.672101,-0.821457 -0.74678,-1.493558 l 0,-0.07468 c 1.045492,-0.8961357 1.866949,-2.389695 1.866949,-4.0326102 0,-3.5098644 -1.493558,-4.8540679 -3.7338977,-4.8540679 -1.5682372,0 -3.7338982,0.8961356 -3.7338982,4.8540679 0,1.5682372 0.8214576,3.0617965 1.8669492,4.0326102 l 0,0.07468 c 0,0.672101 -0.074677,1.269525 -0.7467798,1.493558 0,0 -2.1656609,0.821458 -2.9871186,1.12017 -0.9708135,0.298712 -1.8669491,0.74678 -1.8669491,1.866949 l 0,0.74678 L 16,15.5 16,14.75322 c 0,-0.896136 -0.597424,-1.493559 -1.866949,-1.866949 -0.896136,-0.298712 -2.987119,-1.12017 -2.987119,-1.12017 z"
     id="Page-1"
     inkscape:connector-curvature="0" />
  <polygon
     style="fill:#222222;fill-rule:evenodd;stroke:none;stroke-width:1"
     id="Page-1-Copy"
     points="1,12.962264 4.037736,12.962264 4.037736,16 4.9622643,16 4.9622643,12.962264 8,12.962264 8,12.037736 4.9622643,12.037736 4.962264,9 4.0377357,9 4.037736,12.037736 1,12.037736 "
     transform="matrix(0.71428571,0,0,0.71428571,-0.71428571,0.57142864)" />
</svg>
