<?xml version="1.0" encoding="UTF-8" standalone="no"?>
<!-- Generator: Adobe Illustrator 18.1.1, SVG Export Plug-In . SVG Version: 6.00 Build 0)  -->

<svg
   xmlns:dc="http://purl.org/dc/elements/1.1/"
   xmlns:cc="http://creativecommons.org/ns#"
   xmlns:rdf="http://www.w3.org/1999/02/22-rdf-syntax-ns#"
   xmlns:svg="http://www.w3.org/2000/svg"
   xmlns="http://www.w3.org/2000/svg"
   xmlns:sodipodi="http://sodipodi.sourceforge.net/DTD/sodipodi-0.dtd"
   xmlns:inkscape="http://www.inkscape.org/namespaces/inkscape"
   version="1.1"
   id="Layer_1"
   x="0px"
   y="0px"
   viewBox="0 0 26 16.1"
   enable-background="new 0 0 24 24"
   xml:space="preserve"
   inkscape:version="0.48.5 r10040"
   width="100%"
   height="100%"
   sodipodi:docname="cog.svg"><metadata
     id="metadata9"><rdf:RDF><cc:Work
         rdf:about=""><dc:format>image/svg+xml</dc:format><dc:type
           rdf:resource="http://purl.org/dc/dcmitype/StillImage" /></cc:Work></rdf:RDF></metadata><defs
     id="defs7" /><sodipodi:namedview
     pagecolor="#ffffff"
     bordercolor="#666666"
     borderopacity="1"
     objecttolerance="10"
     gridtolerance="10"
     guidetolerance="10"
     inkscape:pageopacity="0"
     inkscape:pageshadow="2"
     inkscape:window-width="846"
     inkscape:window-height="600"
     id="namedview5"
     showgrid="false"
     fit-margin-top="0"
     fit-margin-left="0"
     fit-margin-right="0"
     fit-margin-bottom="0"
     inkscape:zoom="9.8333333"
     inkscape:cx="5.6101693"
     inkscape:cy="7.1677968"
     inkscape:window-x="0"
     inkscape:window-y="0"
     inkscape:window-maximized="0"
     inkscape:current-layer="Layer_1" /><path
     d="m 16,9.4999996 v -2.9 l -1.8,-0.3 c -0.1,-0.4 -0.3,-0.8 -0.6,-1.4 l 1.1,-1.5 -2.1,-2.1 -1.5,1.1 c -0.5,-0.3 -1,-0.5 -1.4000002,-0.6 l -0.2,-1.79999998146973 h -2.9 L 6.2999998,1.7999996 c -0.5,0.1 -0.9,0.3 -1.4,0.6 l -1.5,-1.1 -2.1,2.1 1,1.5 c -0.3,0.5 -0.4,0.9 -0.6,1.4 l -1.69999998913553,0.2 v 2.9 L 1.7999998,9.6999996 c 0.1,0.5000004 0.3,0.9000004 0.6,1.4000004 l -1,1.5 2.1,2.1 1.5,-1 c 0.4,0.2 0.9,0.4 1.4,0.6 l 0.3,1.8 h 3 l 0.3,-1.8 C 10.5,14.2 10.9,14 11.4,13.7 l 1.5,1.1 2.1,-2.1 -1.1,-1.5 c 0.3,-0.5 0.5,-1 0.6,-1.4000004 l 1.5,-0.3 z M 7.9999998,11 c -1.7,0 -3,-1.3000004 -3,-3.0000004 0,-1.7 1.3,-3 3,-3 1.7,0 3.0000002,1.3 3.0000002,3 C 11,9.6999996 9.6999998,11 7.9999998,11 z"
     id="path3"
     inkscape:connector-curvature="0"
     style="fill:#222222;fill-opacity:1" /><path
     sodipodi:type="star"
     style="fill:#222222;fill-opacity:1;stroke:none"
     id="path2982"
     sodipodi:sides="3"
     sodipodi:cx="21.152542"
     sodipodi:cy="5.4220338"
     sodipodi:r1="2.459672"
     sodipodi:r2="1.2298359"
     sodipodi:arg1="-0.52359878"
     sodipodi:arg2="0.52359878"
     inkscape:flatsided="true"
     inkscape:rounded="0"
     inkscape:randomized="0"
     d="m 23.282681,4.1921978 -2.130139,3.689508 -2.130138,-3.689508 z"
     inkscape:transform-center-y="0.61491797"
     transform="translate(1.9775957,2.0130478)" /></svg>