<?xml version="1.0" encoding="UTF-8" standalone="no"?>
<svg width="24px" height="20px" viewBox="0 0 24 20" version="1.1" xmlns="http://www.w3.org/2000/svg" xmlns:xlink="http://www.w3.org/1999/xlink">
    <!-- Generator: Sketch 39.1 (31720) - http://www.bohemiancoding.com/sketch -->
    <title>filter-highlights</title>
    <desc>Created with Sketch.</desc>
    <defs></defs>
    <g id="Recent-Changes-scenarios" stroke="none" stroke-width="1" fill="none" fill-rule="evenodd">
        <g id="RC---vandalism---less-urgent-open-Copy-20" transform="translate(-642.000000, -230.000000)" fill="#222222">
            <g id="Group" transform="translate(632.000000, 222.000000)">
                <path d="M23.7736157,24.9021007 L23.86784,24.7388995 C24.5234981,23.6032664 24.7687437,21.6582844 24.4156927,20.3949516 L24.320459,20.054174 L24.4549641,19.8091027 L27.8088511,14 L33.8599997,17.4936323 L30.5061127,23.3027349 L30.3693287,23.5396517 L30.0183883,23.6296694 C28.7476535,23.9556182 27.1852234,25.1418158 26.5303454,26.2760977 L26.4361211,26.4392989 L25.9520292,26.1598084 L25.2533028,27.3700381 L23,27.4897168 L24.2712943,25.1894356 L23.7736157,24.9021007 Z M10,8.66666667 L27.5,8.66666667 L20.5,16.8333333 L20.5,25 C18.5166667,25 17,23.4833333 17,21.5 L17,16.8333333 L10,8.66666667 Z" id="filter-highlights"></path>
            </g>
        </g>
    </g>
</svg>