<?xml version="1.0" encoding="UTF-8" standalone="no"?>
<svg
   xmlns:dc="http://purl.org/dc/elements/1.1/"
   xmlns:cc="http://creativecommons.org/ns#"
   xmlns:rdf="http://www.w3.org/1999/02/22-rdf-syntax-ns#"
   xmlns:svg="http://www.w3.org/2000/svg"
   xmlns="http://www.w3.org/2000/svg"
   xmlns:sodipodi="http://sodipodi.sourceforge.net/DTD/sodipodi-0.dtd"
   xmlns:inkscape="http://www.inkscape.org/namespaces/inkscape"
   version="1.1"
   x="0px"
   y="0px"
   viewBox="0 0 24 24"
   enable-background="new 0 0 100 100"
   xml:space="preserve"
   id="svg2"
   inkscape:version="0.91 r13725"
   sodipodi:docname="pin-light.svg"
   width="24"
   height="24"><metadata
     id="metadata10"><rdf:RDF><cc:Work
         rdf:about=""><dc:format>image/svg+xml</dc:format><dc:type
           rdf:resource="http://purl.org/dc/dcmitype/StillImage" /><dc:title></dc:title></cc:Work></rdf:RDF></metadata><defs
     id="defs8" /><sodipodi:namedview
     pagecolor="#ffffff"
     bordercolor="#666666"
     borderopacity="1"
     objecttolerance="10"
     gridtolerance="10"
     guidetolerance="10"
     inkscape:pageopacity="0"
     inkscape:pageshadow="2"
     inkscape:window-width="1245"
     inkscape:window-height="716"
     id="namedview6"
     showgrid="false"
     inkscape:zoom="2.36"
     inkscape:cx="-73.728814"
     inkscape:cy="50"
     inkscape:window-x="0"
     inkscape:window-y="0"
     inkscape:window-maximized="0"
     inkscape:current-layer="svg2" /><path
     d="m 17.690156,12.994224 c -0.85,-0.976889 -1.854889,-0.772 -3.013111,-1.848222 -0.574666,-0.534 -0.52,-3.8573333 -0.52,-3.8573333 0,0 -0.04311,-2.8815556 0.547111,-3.472 0.408,-0.4071111 1.124445,-0.5124445 1.541778,-0.9222223 0.004,-0.00289 0.0067,-0.00556 0.0096,-0.00933 0.09022,-0.090222 0.163333,-0.1964444 0.217333,-0.3224444 0.0067,-0.013333 0.014,-0.023556 0.01867,-0.036667 0.03667,-0.096 0.05644,-0.2086667 0.06689,-0.33 0.0029,-0.031111 0.01778,-0.057333 0.01778,-0.088444 0,-0.00556 -0.0029,-0.010222 -0.0038,-0.016 8.88e-4,-0.00844 0.0038,-0.014889 0.0038,-0.023333 0,-0.020667 -0.01578,-0.031111 -0.01778,-0.05 -0.04827,-0.5680038 -0.509826,-1.018226 -1.089826,-1.018226 l -6.9373339,0 c -0.58,0 -1.041777,0.4502222 -1.089555,1.0182222 -0.002,0.018667 -0.018,0.029111 -0.018,0.05 0,0.00844 0.0029,0.014889 0.0038,0.023333 -8.89e-4,0.00578 -0.0038,0.010444 -0.0038,0.016 0,0.031111 0.01511,0.057333 0.018,0.088444 0.01022,0.1211111 0.03,0.234 0.06667,0.33 0.0047,0.013111 0.01222,0.023333 0.01889,0.036667 0.05356,0.126 0.126889,0.2322222 0.217112,0.3224444 0.0029,0.00378 0.0056,0.00644 0.0093,0.00933 0.417333,0.41 1.133778,0.5151112 1.541778,0.9222223 0.590444,0.5904444 0.547111,3.472 0.547111,3.472 0,0 0.05467,3.3233331 -0.52,3.8573331 -1.158,1.076222 -2.162889,0.871333 -3.012667,1.848222 -0.601778,0.692 -0.491555,1.925334 -0.491555,1.925334 l 5.7046659,0 0,5.026888 0.426667,3.053556 0.101555,0 0.426889,-3.053556 0,-5.026888 5.703556,0 c 0,0 0.11,-1.233334 -0.491556,-1.925334 z"
     id="path4"
     style="fill:#72777d;fill-opacity:1"
     inkscape:connector-curvature="0" /></svg>